<mxfile host="app.diagrams.net" modified="2020-12-11T14:22:30.706Z" agent="5.0 (Windows NT 10.0; Win64; x64) AppleWebKit/537.36 (KHTML, like Gecko) Chrome/87.0.4280.88 Safari/537.36" etag="RliGEH21OXw4phWt9Qps" version="14.0.1" type="github">
  <diagram id="1R9pqmuIDQbFG5ekNz2X" name="Page-1">
    <mxGraphModel dx="1483" dy="2437" grid="1" gridSize="10" guides="1" tooltips="1" connect="1" arrows="1" fold="1" page="1" pageScale="1" pageWidth="2336" pageHeight="1654" math="0" shadow="0">
      <root>
        <mxCell id="0" />
        <mxCell id="1" parent="0" />
        <mxCell id="ceb4Mm7qeh7pn1p0DhYd-15" value="" style="shape=folder;fontStyle=1;spacingTop=10;tabWidth=40;tabHeight=14;tabPosition=left;html=1;fillColor=none;" parent="1" vertex="1">
          <mxGeometry x="3089" y="600" width="890" height="804" as="geometry" />
        </mxCell>
        <mxCell id="ceb4Mm7qeh7pn1p0DhYd-8" value="" style="shape=folder;fontStyle=1;spacingTop=10;tabWidth=40;tabHeight=14;tabPosition=left;html=1;fillColor=none;" parent="1" vertex="1">
          <mxGeometry x="4130" y="610" width="1500" height="804" as="geometry" />
        </mxCell>
        <mxCell id="j2hkmLixcF60nlP_8ZF7-1" value="" style="shape=folder;fontStyle=1;spacingTop=10;tabWidth=40;tabHeight=14;tabPosition=left;html=1;fillColor=none;" parent="1" vertex="1">
          <mxGeometry x="3700" y="-240" width="1450" height="818" as="geometry" />
        </mxCell>
        <mxCell id="AeCEf1UCao7Z_vWgHj9i-1" value="Vehicle.Vehicle.CarTransporter" style="swimlane;fontStyle=1;align=center;verticalAlign=top;childLayout=stackLayout;horizontal=1;startSize=28;horizontalStack=0;resizeParent=1;resizeParentMax=0;resizeLast=0;collapsible=1;marginBottom=0;strokeColor=#000000;fillColor=none;" parent="1" vertex="1">
          <mxGeometry x="1720" y="932" width="360" height="648" as="geometry" />
        </mxCell>
        <mxCell id="AeCEf1UCao7Z_vWgHj9i-3" value="&lt;&lt;final&gt;&gt; - ramp : Vehicle.Ramp&#xa;" style="text;strokeColor=none;fillColor=none;align=left;verticalAlign=top;spacingLeft=4;spacingRight=4;overflow=hidden;rotatable=0;points=[[0,0.5],[1,0.5]];portConstraint=eastwest;fontStyle=0" parent="AeCEf1UCao7Z_vWgHj9i-1" vertex="1">
          <mxGeometry y="28" width="360" height="26" as="geometry" />
        </mxCell>
        <mxCell id="AeCEf1UCao7Z_vWgHj9i-4" value="&lt;&lt;final&gt;&gt; - maxSize: int" style="text;strokeColor=none;fillColor=none;align=left;verticalAlign=top;spacingLeft=4;spacingRight=4;overflow=hidden;rotatable=0;points=[[0,0.5],[1,0.5]];portConstraint=eastwest;" parent="AeCEf1UCao7Z_vWgHj9i-1" vertex="1">
          <mxGeometry y="54" width="360" height="26" as="geometry" />
        </mxCell>
        <mxCell id="AeCEf1UCao7Z_vWgHj9i-5" value="&lt;&lt;final&gt;&gt; - cars: List&lt;Vehicle.Vehicle.Car&gt;" style="text;strokeColor=none;fillColor=none;align=left;verticalAlign=top;spacingLeft=4;spacingRight=4;overflow=hidden;rotatable=0;points=[[0,0.5],[1,0.5]];portConstraint=eastwest;" parent="AeCEf1UCao7Z_vWgHj9i-1" vertex="1">
          <mxGeometry y="80" width="360" height="26" as="geometry" />
        </mxCell>
        <mxCell id="AeCEf1UCao7Z_vWgHj9i-6" value="" style="line;strokeWidth=1;fillColor=none;align=left;verticalAlign=middle;spacingTop=-1;spacingLeft=3;spacingRight=3;rotatable=0;labelPosition=right;points=[];portConstraint=eastwest;" parent="AeCEf1UCao7Z_vWgHj9i-1" vertex="1">
          <mxGeometry y="106" width="360" height="8" as="geometry" />
        </mxCell>
        <mxCell id="w_uHxVpiJhdYi6DjlOEM-58" value="+ Vehicle.Vehicle.CarTransporter(nrDoors : int, enginePower : double, &#xa;                   currentSpeed : double, color : Color, &#xa;                   modelName : String, maxSize : int)" style="text;strokeColor=none;fillColor=none;align=left;verticalAlign=top;spacingLeft=4;spacingRight=4;overflow=hidden;rotatable=0;points=[[0,0.5],[1,0.5]];portConstraint=eastwest;" parent="AeCEf1UCao7Z_vWgHj9i-1" vertex="1">
          <mxGeometry y="114" width="360" height="52" as="geometry" />
        </mxCell>
        <mxCell id="AeCEf1UCao7Z_vWgHj9i-8" value="+ raiseRamp(): void" style="text;strokeColor=none;fillColor=none;align=left;verticalAlign=top;spacingLeft=4;spacingRight=4;overflow=hidden;rotatable=0;points=[[0,0.5],[1,0.5]];portConstraint=eastwest;" parent="AeCEf1UCao7Z_vWgHj9i-1" vertex="1">
          <mxGeometry y="166" width="360" height="24" as="geometry" />
        </mxCell>
        <mxCell id="AeCEf1UCao7Z_vWgHj9i-9" value="+ lowerRamp(): void" style="text;strokeColor=none;fillColor=none;align=left;verticalAlign=top;spacingLeft=4;spacingRight=4;overflow=hidden;rotatable=0;points=[[0,0.5],[1,0.5]];portConstraint=eastwest;" parent="AeCEf1UCao7Z_vWgHj9i-1" vertex="1">
          <mxGeometry y="190" width="360" height="26" as="geometry" />
        </mxCell>
        <mxCell id="AeCEf1UCao7Z_vWgHj9i-10" value="+ isRampRaised(): boolean" style="text;strokeColor=none;fillColor=none;align=left;verticalAlign=top;spacingLeft=4;spacingRight=4;overflow=hidden;rotatable=0;points=[[0,0.5],[1,0.5]];portConstraint=eastwest;" parent="AeCEf1UCao7Z_vWgHj9i-1" vertex="1">
          <mxGeometry y="216" width="360" height="26" as="geometry" />
        </mxCell>
        <mxCell id="AeCEf1UCao7Z_vWgHj9i-113" value="+ getCars(): List&lt;Vehicle.Vehicle.Car&gt;" style="text;strokeColor=none;fillColor=none;align=left;verticalAlign=top;spacingLeft=4;spacingRight=4;overflow=hidden;rotatable=0;points=[[0,0.5],[1,0.5]];portConstraint=eastwest;shadow=1;" parent="AeCEf1UCao7Z_vWgHj9i-1" vertex="1">
          <mxGeometry y="242" width="360" height="26" as="geometry" />
        </mxCell>
        <mxCell id="AeCEf1UCao7Z_vWgHj9i-14" value="+ isCarCloseEnough(c : Vehicle.Vehicle.Car): boolean" style="text;strokeColor=none;fillColor=none;align=left;verticalAlign=top;spacingLeft=4;spacingRight=4;overflow=hidden;rotatable=0;points=[[0,0.5],[1,0.5]];portConstraint=eastwest;" parent="AeCEf1UCao7Z_vWgHj9i-1" vertex="1">
          <mxGeometry y="268" width="360" height="26" as="geometry" />
        </mxCell>
        <mxCell id="AeCEf1UCao7Z_vWgHj9i-11" value="+ isStationary(): boolean " style="text;strokeColor=none;fillColor=none;align=left;verticalAlign=top;spacingLeft=4;spacingRight=4;overflow=hidden;rotatable=0;points=[[0,0.5],[1,0.5]];portConstraint=eastwest;" parent="AeCEf1UCao7Z_vWgHj9i-1" vertex="1">
          <mxGeometry y="294" width="360" height="26" as="geometry" />
        </mxCell>
        <mxCell id="AeCEf1UCao7Z_vWgHj9i-114" value="+ isCarStationary(car : Vehicle.Vehicle.Car): boolean " style="text;strokeColor=none;fillColor=none;align=left;verticalAlign=top;spacingLeft=4;spacingRight=4;overflow=hidden;rotatable=0;points=[[0,0.5],[1,0.5]];portConstraint=eastwest;" parent="AeCEf1UCao7Z_vWgHj9i-1" vertex="1">
          <mxGeometry y="320" width="360" height="26" as="geometry" />
        </mxCell>
        <mxCell id="AeCEf1UCao7Z_vWgHj9i-12" value="+ loadCar(car : Vehicle.Vehicle.Car): void " style="text;strokeColor=none;fillColor=none;align=left;verticalAlign=top;spacingLeft=4;spacingRight=4;overflow=hidden;rotatable=0;points=[[0,0.5],[1,0.5]];portConstraint=eastwest;" parent="AeCEf1UCao7Z_vWgHj9i-1" vertex="1">
          <mxGeometry y="346" width="360" height="26" as="geometry" />
        </mxCell>
        <mxCell id="AeCEf1UCao7Z_vWgHj9i-13" value="&lt;span style=&quot;color: rgb(0 , 0 , 0) ; font-family: &amp;#34;helvetica&amp;#34; ; font-size: 12px ; font-style: normal ; font-weight: 400 ; letter-spacing: normal ; text-align: left ; text-indent: 0px ; text-transform: none ; word-spacing: 0px ; background-color: rgb(248 , 249 , 250) ; display: inline ; float: none&quot;&gt;&amp;nbsp;+ unloadCar(): void&amp;nbsp;&lt;/span&gt;" style="text;whiteSpace=wrap;html=1;fillColor=none;" parent="AeCEf1UCao7Z_vWgHj9i-1" vertex="1">
          <mxGeometry y="372" width="360" height="30" as="geometry" />
        </mxCell>
        <mxCell id="AeCEf1UCao7Z_vWgHj9i-116" value="+ lastLoadedIndex(): int" style="text;strokeColor=none;fillColor=none;align=left;verticalAlign=top;spacingLeft=4;spacingRight=4;overflow=hidden;rotatable=0;points=[[0,0.5],[1,0.5]];portConstraint=eastwest;shadow=1;" parent="AeCEf1UCao7Z_vWgHj9i-1" vertex="1">
          <mxGeometry y="402" width="360" height="26" as="geometry" />
        </mxCell>
        <mxCell id="AeCEf1UCao7Z_vWgHj9i-117" value="&lt;span style=&quot;color: rgb(0 , 0 , 0) ; font-family: &amp;#34;helvetica&amp;#34; ; font-size: 12px ; font-style: normal ; font-weight: 400 ; letter-spacing: normal ; text-align: left ; text-indent: 0px ; text-transform: none ; word-spacing: 0px ; background-color: rgb(248 , 249 , 250) ; display: inline ; float: none&quot;&gt;&amp;nbsp;+ canLoadCar(car : Vehicle.Vehicle.Car): boolean&lt;/span&gt;" style="text;whiteSpace=wrap;html=1;fillColor=none;" parent="AeCEf1UCao7Z_vWgHj9i-1" vertex="1">
          <mxGeometry y="428" width="360" height="30" as="geometry" />
        </mxCell>
        <mxCell id="AeCEf1UCao7Z_vWgHj9i-118" value="&lt;span style=&quot;color: rgb(0 , 0 , 0) ; font-family: &amp;#34;helvetica&amp;#34; ; font-size: 12px ; font-style: normal ; font-weight: 400 ; letter-spacing: normal ; text-align: left ; text-indent: 0px ; text-transform: none ; word-spacing: 0px ; background-color: rgb(248 , 249 , 250) ; display: inline ; float: none&quot;&gt;&amp;nbsp;+ canUnloadCar(): boolean&amp;nbsp;&lt;/span&gt;" style="text;whiteSpace=wrap;html=1;fillColor=none;" parent="AeCEf1UCao7Z_vWgHj9i-1" vertex="1">
          <mxGeometry y="458" width="360" height="30" as="geometry" />
        </mxCell>
        <mxCell id="AeCEf1UCao7Z_vWgHj9i-15" value="&lt;span style=&quot;color: rgb(0 , 0 , 0) ; font-family: &amp;#34;helvetica&amp;#34; ; font-size: 12px ; font-style: normal ; font-weight: 400 ; letter-spacing: normal ; text-align: left ; text-indent: 0px ; text-transform: none ; word-spacing: 0px ; background-color: rgb(248 , 249 , 250) ; display: inline ; float: none&quot;&gt;&amp;nbsp;+ canLoadOrUnloadCar(): boolean&amp;nbsp;&lt;/span&gt;" style="text;whiteSpace=wrap;html=1;fillColor=none;" parent="AeCEf1UCao7Z_vWgHj9i-1" vertex="1">
          <mxGeometry y="488" width="360" height="30" as="geometry" />
        </mxCell>
        <mxCell id="AeCEf1UCao7Z_vWgHj9i-16" value="+ speedFactor(): double" style="text;strokeColor=none;fillColor=none;align=left;verticalAlign=top;spacingLeft=4;spacingRight=4;overflow=hidden;rotatable=0;points=[[0,0.5],[1,0.5]];portConstraint=eastwest;" parent="AeCEf1UCao7Z_vWgHj9i-1" vertex="1">
          <mxGeometry y="518" width="360" height="26" as="geometry" />
        </mxCell>
        <mxCell id="AeCEf1UCao7Z_vWgHj9i-17" value="+ carsToString(): String" style="text;strokeColor=none;fillColor=none;align=left;verticalAlign=top;spacingLeft=4;spacingRight=4;overflow=hidden;rotatable=0;points=[[0,0.5],[1,0.5]];portConstraint=eastwest;" parent="AeCEf1UCao7Z_vWgHj9i-1" vertex="1">
          <mxGeometry y="544" width="360" height="26" as="geometry" />
        </mxCell>
        <mxCell id="AeCEf1UCao7Z_vWgHj9i-119" value="+ move(): void" style="text;strokeColor=none;fillColor=none;align=left;verticalAlign=top;spacingLeft=4;spacingRight=4;overflow=hidden;rotatable=0;points=[[0,0.5],[1,0.5]];portConstraint=eastwest;" parent="AeCEf1UCao7Z_vWgHj9i-1" vertex="1">
          <mxGeometry y="570" width="360" height="26" as="geometry" />
        </mxCell>
        <mxCell id="w_uHxVpiJhdYi6DjlOEM-59" value="+ gas(amount : double): void" style="text;strokeColor=none;fillColor=none;align=left;verticalAlign=top;spacingLeft=4;spacingRight=4;overflow=hidden;rotatable=0;points=[[0,0.5],[1,0.5]];portConstraint=eastwest;" parent="AeCEf1UCao7Z_vWgHj9i-1" vertex="1">
          <mxGeometry y="596" width="360" height="26" as="geometry" />
        </mxCell>
        <mxCell id="w_uHxVpiJhdYi6DjlOEM-60" value="+ startEngine(): void" style="text;strokeColor=none;fillColor=none;align=left;verticalAlign=top;spacingLeft=4;spacingRight=4;overflow=hidden;rotatable=0;points=[[0,0.5],[1,0.5]];portConstraint=eastwest;" parent="AeCEf1UCao7Z_vWgHj9i-1" vertex="1">
          <mxGeometry y="622" width="360" height="26" as="geometry" />
        </mxCell>
        <mxCell id="AeCEf1UCao7Z_vWgHj9i-18" value="Vehicle.Movable&#xa;&lt;&lt;interface&gt;&gt;" style="swimlane;fontStyle=1;childLayout=stackLayout;horizontal=1;startSize=40;fillColor=none;horizontalStack=0;resizeParent=1;resizeParentMax=0;resizeLast=0;collapsible=1;marginBottom=0;" parent="1" vertex="1">
          <mxGeometry x="760" y="-250" width="160" height="118" as="geometry" />
        </mxCell>
        <mxCell id="AeCEf1UCao7Z_vWgHj9i-19" value="+ move() : void" style="text;strokeColor=none;fillColor=none;align=left;verticalAlign=top;spacingLeft=4;spacingRight=4;overflow=hidden;rotatable=0;points=[[0,0.5],[1,0.5]];portConstraint=eastwest;" parent="AeCEf1UCao7Z_vWgHj9i-18" vertex="1">
          <mxGeometry y="40" width="160" height="26" as="geometry" />
        </mxCell>
        <mxCell id="AeCEf1UCao7Z_vWgHj9i-20" value="+ turnLeft() : void" style="text;strokeColor=none;fillColor=none;align=left;verticalAlign=top;spacingLeft=4;spacingRight=4;overflow=hidden;rotatable=0;points=[[0,0.5],[1,0.5]];portConstraint=eastwest;" parent="AeCEf1UCao7Z_vWgHj9i-18" vertex="1">
          <mxGeometry y="66" width="160" height="26" as="geometry" />
        </mxCell>
        <mxCell id="AeCEf1UCao7Z_vWgHj9i-21" value="+ turnRight() : void" style="text;strokeColor=none;fillColor=none;align=left;verticalAlign=top;spacingLeft=4;spacingRight=4;overflow=hidden;rotatable=0;points=[[0,0.5],[1,0.5]];portConstraint=eastwest;" parent="AeCEf1UCao7Z_vWgHj9i-18" vertex="1">
          <mxGeometry y="92" width="160" height="26" as="geometry" />
        </mxCell>
        <mxCell id="AeCEf1UCao7Z_vWgHj9i-22" value="Vehicle.Vehicle&#xa;{abstract}&#xa;" style="swimlane;fontStyle=1;align=center;verticalAlign=top;childLayout=stackLayout;horizontal=1;startSize=40;horizontalStack=0;resizeParent=1;resizeParentMax=0;resizeLast=0;collapsible=1;marginBottom=0;" parent="1" vertex="1">
          <mxGeometry x="680" y="-70" width="320" height="662" as="geometry" />
        </mxCell>
        <mxCell id="sVimmGY8A6TlWUGBevZl-19" value="- notifier : Notifier" style="text;strokeColor=none;fillColor=none;align=left;verticalAlign=top;spacingLeft=4;spacingRight=4;overflow=hidden;rotatable=0;points=[[0,0.5],[1,0.5]];portConstraint=eastwest;" parent="AeCEf1UCao7Z_vWgHj9i-22" vertex="1">
          <mxGeometry y="40" width="320" height="26" as="geometry" />
        </mxCell>
        <mxCell id="AeCEf1UCao7Z_vWgHj9i-23" value="&lt;&lt;get/set&gt;&gt; - x : double" style="text;strokeColor=none;fillColor=none;align=left;verticalAlign=top;spacingLeft=4;spacingRight=4;overflow=hidden;rotatable=0;points=[[0,0.5],[1,0.5]];portConstraint=eastwest;" parent="AeCEf1UCao7Z_vWgHj9i-22" vertex="1">
          <mxGeometry y="66" width="320" height="26" as="geometry" />
        </mxCell>
        <mxCell id="AeCEf1UCao7Z_vWgHj9i-24" value="&lt;&lt;get/set&gt;&gt; - y : double" style="text;strokeColor=none;fillColor=none;align=left;verticalAlign=top;spacingLeft=4;spacingRight=4;overflow=hidden;rotatable=0;points=[[0,0.5],[1,0.5]];portConstraint=eastwest;" parent="AeCEf1UCao7Z_vWgHj9i-22" vertex="1">
          <mxGeometry y="92" width="320" height="26" as="geometry" />
        </mxCell>
        <mxCell id="AeCEf1UCao7Z_vWgHj9i-25" value="&lt;&lt;get/set&gt;&gt; - nrDoors : int" style="text;strokeColor=none;fillColor=none;align=left;verticalAlign=top;spacingLeft=4;spacingRight=4;overflow=hidden;rotatable=0;points=[[0,0.5],[1,0.5]];portConstraint=eastwest;" parent="AeCEf1UCao7Z_vWgHj9i-22" vertex="1">
          <mxGeometry y="118" width="320" height="26" as="geometry" />
        </mxCell>
        <mxCell id="AeCEf1UCao7Z_vWgHj9i-26" value="&lt;&lt;get/set&gt;&gt; - enginePower : double" style="text;strokeColor=none;fillColor=none;align=left;verticalAlign=top;spacingLeft=4;spacingRight=4;overflow=hidden;rotatable=0;points=[[0,0.5],[1,0.5]];portConstraint=eastwest;" parent="AeCEf1UCao7Z_vWgHj9i-22" vertex="1">
          <mxGeometry y="144" width="320" height="26" as="geometry" />
        </mxCell>
        <mxCell id="AeCEf1UCao7Z_vWgHj9i-27" value="&lt;&lt;get / -set&gt;&gt; - currentSpeed : double" style="text;strokeColor=none;fillColor=none;align=left;verticalAlign=top;spacingLeft=4;spacingRight=4;overflow=hidden;rotatable=0;points=[[0,0.5],[1,0.5]];portConstraint=eastwest;" parent="AeCEf1UCao7Z_vWgHj9i-22" vertex="1">
          <mxGeometry y="170" width="320" height="26" as="geometry" />
        </mxCell>
        <mxCell id="AeCEf1UCao7Z_vWgHj9i-28" value="&lt;&lt;get/set&gt;&gt; - color : Color" style="text;strokeColor=none;fillColor=none;align=left;verticalAlign=top;spacingLeft=4;spacingRight=4;overflow=hidden;rotatable=0;points=[[0,0.5],[1,0.5]];portConstraint=eastwest;" parent="AeCEf1UCao7Z_vWgHj9i-22" vertex="1">
          <mxGeometry y="196" width="320" height="26" as="geometry" />
        </mxCell>
        <mxCell id="AeCEf1UCao7Z_vWgHj9i-29" value="&lt;&lt;get/set&gt;&gt; - modelName : String" style="text;strokeColor=none;fillColor=none;align=left;verticalAlign=top;spacingLeft=4;spacingRight=4;overflow=hidden;rotatable=0;points=[[0,0.5],[1,0.5]];portConstraint=eastwest;" parent="AeCEf1UCao7Z_vWgHj9i-22" vertex="1">
          <mxGeometry y="222" width="320" height="26" as="geometry" />
        </mxCell>
        <mxCell id="yBkD2uAlPnw_lQSOTUZA-1" value="&lt;&lt;get / -set&gt;&gt; - directionAngle : int" style="text;strokeColor=none;fillColor=none;align=left;verticalAlign=top;spacingLeft=4;spacingRight=4;overflow=hidden;rotatable=0;points=[[0,0.5],[1,0.5]];portConstraint=eastwest;" parent="AeCEf1UCao7Z_vWgHj9i-22" vertex="1">
          <mxGeometry y="248" width="320" height="26" as="geometry" />
        </mxCell>
        <mxCell id="o3Hq99OHR-f3-e-FKoT0-30" value="&lt;&lt;get / -set&gt;&gt; - image : BufferedImage" style="text;strokeColor=none;align=left;verticalAlign=top;spacingLeft=4;spacingRight=4;overflow=hidden;rotatable=0;points=[[0,0.5],[1,0.5]];portConstraint=eastwest;" parent="AeCEf1UCao7Z_vWgHj9i-22" vertex="1">
          <mxGeometry y="274" width="320" height="26" as="geometry" />
        </mxCell>
        <mxCell id="AeCEf1UCao7Z_vWgHj9i-30" value="" style="line;strokeWidth=1;fillColor=none;align=left;verticalAlign=middle;spacingTop=-1;spacingLeft=3;spacingRight=3;rotatable=0;labelPosition=right;points=[];portConstraint=eastwest;" parent="AeCEf1UCao7Z_vWgHj9i-22" vertex="1">
          <mxGeometry y="300" width="320" height="8" as="geometry" />
        </mxCell>
        <mxCell id="AeCEf1UCao7Z_vWgHj9i-31" value="+ Vehicle.Vehicle(x : double, y : double, nrDoors : int, &#xa;       enginePower : double, currentSpeed : double,&#xa;       color : Color, modelName : String, directionAngle : int&#xa;                                                     image : BufferedImage)" style="text;strokeColor=none;fillColor=none;align=left;verticalAlign=top;spacingLeft=4;spacingRight=4;overflow=hidden;rotatable=0;points=[[0,0.5],[1,0.5]];portConstraint=eastwest;" parent="AeCEf1UCao7Z_vWgHj9i-22" vertex="1">
          <mxGeometry y="308" width="320" height="68" as="geometry" />
        </mxCell>
        <mxCell id="AeCEf1UCao7Z_vWgHj9i-32" value="+ startEngine(): void" style="text;strokeColor=none;fillColor=none;align=left;verticalAlign=top;spacingLeft=4;spacingRight=4;overflow=hidden;rotatable=0;points=[[0,0.5],[1,0.5]];portConstraint=eastwest;" parent="AeCEf1UCao7Z_vWgHj9i-22" vertex="1">
          <mxGeometry y="376" width="320" height="26" as="geometry" />
        </mxCell>
        <mxCell id="AeCEf1UCao7Z_vWgHj9i-33" value="+ stopEngine(): void" style="text;strokeColor=none;fillColor=none;align=left;verticalAlign=top;spacingLeft=4;spacingRight=4;overflow=hidden;rotatable=0;points=[[0,0.5],[1,0.5]];portConstraint=eastwest;" parent="AeCEf1UCao7Z_vWgHj9i-22" vertex="1">
          <mxGeometry y="402" width="320" height="26" as="geometry" />
        </mxCell>
        <mxCell id="AeCEf1UCao7Z_vWgHj9i-34" value="+ move() : void" style="text;align=left;verticalAlign=top;spacingLeft=4;spacingRight=4;overflow=hidden;rotatable=0;points=[[0,0.5],[1,0.5]];portConstraint=eastwest;" parent="AeCEf1UCao7Z_vWgHj9i-22" vertex="1">
          <mxGeometry y="428" width="320" height="26" as="geometry" />
        </mxCell>
        <mxCell id="AeCEf1UCao7Z_vWgHj9i-35" value="+ turnLeft(angle : int) : void" style="text;strokeColor=none;fillColor=none;align=left;verticalAlign=top;spacingLeft=4;spacingRight=4;overflow=hidden;rotatable=0;points=[[0,0.5],[1,0.5]];portConstraint=eastwest;" parent="AeCEf1UCao7Z_vWgHj9i-22" vertex="1">
          <mxGeometry y="454" width="320" height="26" as="geometry" />
        </mxCell>
        <mxCell id="AeCEf1UCao7Z_vWgHj9i-36" value="+ turnRight(angle : int) : void" style="text;strokeColor=none;fillColor=none;align=left;verticalAlign=top;spacingLeft=4;spacingRight=4;overflow=hidden;rotatable=0;points=[[0,0.5],[1,0.5]];portConstraint=eastwest;" parent="AeCEf1UCao7Z_vWgHj9i-22" vertex="1">
          <mxGeometry y="480" width="320" height="26" as="geometry" />
        </mxCell>
        <mxCell id="AeCEf1UCao7Z_vWgHj9i-37" value="+ toString() : String" style="text;strokeColor=none;fillColor=none;align=left;verticalAlign=top;spacingLeft=4;spacingRight=4;overflow=hidden;rotatable=0;points=[[0,0.5],[1,0.5]];portConstraint=eastwest;" parent="AeCEf1UCao7Z_vWgHj9i-22" vertex="1">
          <mxGeometry y="506" width="320" height="26" as="geometry" />
        </mxCell>
        <mxCell id="AeCEf1UCao7Z_vWgHj9i-38" value="&lt;&lt;abstract&gt;&gt; + speedFactor(): double" style="text;strokeColor=none;fillColor=none;align=left;verticalAlign=top;spacingLeft=4;spacingRight=4;overflow=hidden;rotatable=0;points=[[0,0.5],[1,0.5]];portConstraint=eastwest;" parent="AeCEf1UCao7Z_vWgHj9i-22" vertex="1">
          <mxGeometry y="532" width="320" height="26" as="geometry" />
        </mxCell>
        <mxCell id="AeCEf1UCao7Z_vWgHj9i-39" value="+ incrementSpeed(amount : double): void" style="text;strokeColor=none;fillColor=none;align=left;verticalAlign=top;spacingLeft=4;spacingRight=4;overflow=hidden;rotatable=0;points=[[0,0.5],[1,0.5]];portConstraint=eastwest;" parent="AeCEf1UCao7Z_vWgHj9i-22" vertex="1">
          <mxGeometry y="558" width="320" height="26" as="geometry" />
        </mxCell>
        <mxCell id="AeCEf1UCao7Z_vWgHj9i-40" value="- decrementSpeed(amount : double): void" style="text;strokeColor=none;fillColor=none;align=left;verticalAlign=top;spacingLeft=4;spacingRight=4;overflow=hidden;rotatable=0;points=[[0,0.5],[1,0.5]];portConstraint=eastwest;" parent="AeCEf1UCao7Z_vWgHj9i-22" vertex="1">
          <mxGeometry y="584" width="320" height="26" as="geometry" />
        </mxCell>
        <mxCell id="AeCEf1UCao7Z_vWgHj9i-41" value="+ gas(amount : double): void" style="text;strokeColor=none;fillColor=none;align=left;verticalAlign=top;spacingLeft=4;spacingRight=4;overflow=hidden;rotatable=0;points=[[0,0.5],[1,0.5]];portConstraint=eastwest;" parent="AeCEf1UCao7Z_vWgHj9i-22" vertex="1">
          <mxGeometry y="610" width="320" height="26" as="geometry" />
        </mxCell>
        <mxCell id="AeCEf1UCao7Z_vWgHj9i-42" value="+ brake(amount : double): void" style="text;strokeColor=none;fillColor=none;align=left;verticalAlign=top;spacingLeft=4;spacingRight=4;overflow=hidden;rotatable=0;points=[[0,0.5],[1,0.5]];portConstraint=eastwest;" parent="AeCEf1UCao7Z_vWgHj9i-22" vertex="1">
          <mxGeometry y="636" width="320" height="26" as="geometry" />
        </mxCell>
        <mxCell id="AeCEf1UCao7Z_vWgHj9i-43" value="" style="endArrow=block;dashed=1;endFill=0;endSize=12;html=1;entryX=0.5;entryY=1.038;entryDx=0;entryDy=0;entryPerimeter=0;" parent="1" source="AeCEf1UCao7Z_vWgHj9i-22" target="AeCEf1UCao7Z_vWgHj9i-21" edge="1">
          <mxGeometry width="160" relative="1" as="geometry">
            <mxPoint x="1020" y="290" as="sourcePoint" />
            <mxPoint x="1180" y="290" as="targetPoint" />
          </mxGeometry>
        </mxCell>
        <mxCell id="AeCEf1UCao7Z_vWgHj9i-52" value="Vehicle.Volvo240" style="swimlane;fontStyle=1;align=center;verticalAlign=top;childLayout=stackLayout;horizontal=1;startSize=26;horizontalStack=0;resizeParent=1;resizeParentMax=0;resizeLast=0;collapsible=1;marginBottom=0;" parent="1" vertex="1">
          <mxGeometry x="50" y="859.74" width="270" height="146" as="geometry" />
        </mxCell>
        <mxCell id="AeCEf1UCao7Z_vWgHj9i-53" value="&lt;&lt;final&gt;&gt; - trimFactor : double " style="text;strokeColor=none;fillColor=none;align=left;verticalAlign=top;spacingLeft=4;spacingRight=4;overflow=hidden;rotatable=0;points=[[0,0.5],[1,0.5]];portConstraint=eastwest;fontStyle=4" parent="AeCEf1UCao7Z_vWgHj9i-52" vertex="1">
          <mxGeometry y="26" width="270" height="26" as="geometry" />
        </mxCell>
        <mxCell id="AeCEf1UCao7Z_vWgHj9i-54" value="" style="line;strokeWidth=1;fillColor=none;align=left;verticalAlign=middle;spacingTop=-1;spacingLeft=3;spacingRight=3;rotatable=0;labelPosition=right;points=[];portConstraint=eastwest;" parent="AeCEf1UCao7Z_vWgHj9i-52" vertex="1">
          <mxGeometry y="52" width="270" height="8" as="geometry" />
        </mxCell>
        <mxCell id="AeCEf1UCao7Z_vWgHj9i-55" value="+ Vehicle.Volvo240(nrDoors : int, enginePower : double, &#xa;                   currentSpeed : double, color : Color, &#xa;                   modelName : String)" style="text;strokeColor=none;fillColor=none;align=left;verticalAlign=top;spacingLeft=4;spacingRight=4;overflow=hidden;rotatable=0;points=[[0,0.5],[1,0.5]];portConstraint=eastwest;" parent="AeCEf1UCao7Z_vWgHj9i-52" vertex="1">
          <mxGeometry y="60" width="270" height="60" as="geometry" />
        </mxCell>
        <mxCell id="AeCEf1UCao7Z_vWgHj9i-56" value="+ speedFactor(): double" style="text;strokeColor=none;fillColor=none;align=left;verticalAlign=top;spacingLeft=4;spacingRight=4;overflow=hidden;rotatable=0;points=[[0,0.5],[1,0.5]];portConstraint=eastwest;" parent="AeCEf1UCao7Z_vWgHj9i-52" vertex="1">
          <mxGeometry y="120" width="270" height="26" as="geometry" />
        </mxCell>
        <mxCell id="AeCEf1UCao7Z_vWgHj9i-57" value="Extends" style="endArrow=block;endSize=16;endFill=0;html=1;exitX=0.5;exitY=0;exitDx=0;exitDy=0;entryX=0.5;entryY=1;entryDx=0;entryDy=0;" parent="1" source="AeCEf1UCao7Z_vWgHj9i-52" target="AeCEf1UCao7Z_vWgHj9i-60" edge="1">
          <mxGeometry width="160" relative="1" as="geometry">
            <mxPoint x="540" y="949.74" as="sourcePoint" />
            <mxPoint x="340.31999999999994" y="771.5960000000002" as="targetPoint" />
          </mxGeometry>
        </mxCell>
        <mxCell id="AeCEf1UCao7Z_vWgHj9i-58" value="Extends" style="endArrow=block;endSize=16;endFill=0;html=1;exitX=0.5;exitY=0;exitDx=0;exitDy=0;entryX=0.5;entryY=1;entryDx=0;entryDy=0;" parent="1" source="w_uHxVpiJhdYi6DjlOEM-18" target="AeCEf1UCao7Z_vWgHj9i-60" edge="1">
          <mxGeometry width="160" relative="1" as="geometry">
            <mxPoint x="320" y="979.74" as="sourcePoint" />
            <mxPoint x="340.96000000000004" y="772.8199999999999" as="targetPoint" />
          </mxGeometry>
        </mxCell>
        <mxCell id="AeCEf1UCao7Z_vWgHj9i-59" value="Extends" style="endArrow=block;endSize=16;endFill=0;html=1;exitX=0.5;exitY=0;exitDx=0;exitDy=0;entryX=0.5;entryY=1;entryDx=0;entryDy=0;" parent="1" source="AeCEf1UCao7Z_vWgHj9i-92" target="AeCEf1UCao7Z_vWgHj9i-61" edge="1">
          <mxGeometry width="160" relative="1" as="geometry">
            <mxPoint x="400" y="930" as="sourcePoint" />
            <mxPoint x="910.9599999999998" y="717.172" as="targetPoint" />
          </mxGeometry>
        </mxCell>
        <mxCell id="AeCEf1UCao7Z_vWgHj9i-60" value="Vehicle.Vehicle.Car&#xa;{abstract}" style="swimlane;fontStyle=1;align=center;verticalAlign=top;childLayout=stackLayout;horizontal=1;startSize=40;horizontalStack=0;resizeParent=1;resizeParentMax=0;resizeLast=0;collapsible=1;marginBottom=0;" parent="1" vertex="1">
          <mxGeometry x="190" y="660.74" width="340" height="94" as="geometry" />
        </mxCell>
        <mxCell id="w_uHxVpiJhdYi6DjlOEM-1" value="+ Vehicle.Vehicle.Car(x : double, y : double, nrDoors : int, &#xa;       enginePower : double, currentSpeed : double,&#xa;       color : Color, modelName : String, directionAngle : int)" style="text;strokeColor=none;fillColor=none;align=left;verticalAlign=top;spacingLeft=4;spacingRight=4;overflow=hidden;rotatable=0;points=[[0,0.5],[1,0.5]];portConstraint=eastwest;" parent="AeCEf1UCao7Z_vWgHj9i-60" vertex="1">
          <mxGeometry y="40" width="340" height="54" as="geometry" />
        </mxCell>
        <mxCell id="AeCEf1UCao7Z_vWgHj9i-61" value="Vehicle.Vehicle.Truck&#xa;{abstract}" style="swimlane;fontStyle=1;align=center;verticalAlign=top;childLayout=stackLayout;horizontal=1;startSize=40;horizontalStack=0;resizeParent=1;resizeParentMax=0;resizeLast=0;collapsible=1;marginBottom=0;" parent="1" vertex="1">
          <mxGeometry x="1260" y="640" width="320" height="128" as="geometry" />
        </mxCell>
        <mxCell id="w_uHxVpiJhdYi6DjlOEM-28" value="- ramp : Vehicle.Ramp&#xa;" style="text;strokeColor=none;fillColor=none;align=left;verticalAlign=top;spacingLeft=4;spacingRight=4;overflow=hidden;rotatable=0;points=[[0,0.5],[1,0.5]];portConstraint=eastwest;fontStyle=0" parent="AeCEf1UCao7Z_vWgHj9i-61" vertex="1">
          <mxGeometry y="40" width="320" height="26" as="geometry" />
        </mxCell>
        <mxCell id="w_uHxVpiJhdYi6DjlOEM-29" value="" style="line;strokeWidth=1;fillColor=none;align=left;verticalAlign=middle;spacingTop=-1;spacingLeft=3;spacingRight=3;rotatable=0;labelPosition=right;points=[];portConstraint=eastwest;" parent="AeCEf1UCao7Z_vWgHj9i-61" vertex="1">
          <mxGeometry y="66" width="320" height="8" as="geometry" />
        </mxCell>
        <mxCell id="w_uHxVpiJhdYi6DjlOEM-27" value="+ Vehicle.Vehicle.Truck(x : double, y : double, nrDoors : int, &#xa;       enginePower : double, currentSpeed : double,&#xa;       color : Color, modelName : String, directionAngle : int)" style="text;strokeColor=none;fillColor=none;align=left;verticalAlign=top;spacingLeft=4;spacingRight=4;overflow=hidden;rotatable=0;points=[[0,0.5],[1,0.5]];portConstraint=eastwest;" parent="AeCEf1UCao7Z_vWgHj9i-61" vertex="1">
          <mxGeometry y="74" width="320" height="54" as="geometry" />
        </mxCell>
        <mxCell id="AeCEf1UCao7Z_vWgHj9i-62" value="Extends" style="endArrow=block;endSize=16;endFill=0;html=1;exitX=0.5;exitY=0;exitDx=0;exitDy=0;entryX=0.5;entryY=1.096;entryDx=0;entryDy=0;entryPerimeter=0;" parent="1" source="AeCEf1UCao7Z_vWgHj9i-60" target="AeCEf1UCao7Z_vWgHj9i-42" edge="1">
          <mxGeometry width="160" relative="1" as="geometry">
            <mxPoint x="590" y="719.74" as="sourcePoint" />
            <mxPoint x="610" y="620" as="targetPoint" />
          </mxGeometry>
        </mxCell>
        <mxCell id="AeCEf1UCao7Z_vWgHj9i-63" value="Extends" style="endArrow=block;endSize=16;endFill=0;html=1;exitX=0.5;exitY=0;exitDx=0;exitDy=0;entryX=0.491;entryY=1.131;entryDx=0;entryDy=0;entryPerimeter=0;" parent="1" source="AeCEf1UCao7Z_vWgHj9i-61" target="AeCEf1UCao7Z_vWgHj9i-42" edge="1">
          <mxGeometry width="160" relative="1" as="geometry">
            <mxPoint x="490" y="620" as="sourcePoint" />
            <mxPoint x="840" y="558" as="targetPoint" />
          </mxGeometry>
        </mxCell>
        <mxCell id="AeCEf1UCao7Z_vWgHj9i-92" value="Vehicle.Scania" style="swimlane;fontStyle=1;align=center;verticalAlign=top;childLayout=stackLayout;horizontal=1;startSize=28;horizontalStack=0;resizeParent=1;resizeParentMax=0;resizeLast=0;collapsible=1;marginBottom=0;" parent="1" vertex="1">
          <mxGeometry x="1040" y="932" width="280" height="426" as="geometry" />
        </mxCell>
        <mxCell id="w_uHxVpiJhdYi6DjlOEM-43" value="&lt;&lt;final&gt;&gt; - ramp : Vehicle.Ramp&#xa;" style="text;strokeColor=none;fillColor=none;align=left;verticalAlign=top;spacingLeft=4;spacingRight=4;overflow=hidden;rotatable=0;points=[[0,0.5],[1,0.5]];portConstraint=eastwest;fontStyle=0" parent="AeCEf1UCao7Z_vWgHj9i-92" vertex="1">
          <mxGeometry y="28" width="280" height="26" as="geometry" />
        </mxCell>
        <mxCell id="AeCEf1UCao7Z_vWgHj9i-93" value="&lt;&lt;get/set&gt;&gt; - platformAngle : int&#xa;" style="text;strokeColor=none;fillColor=none;align=left;verticalAlign=top;spacingLeft=4;spacingRight=4;overflow=hidden;rotatable=0;points=[[0,0.5],[1,0.5]];portConstraint=eastwest;fontStyle=0" parent="AeCEf1UCao7Z_vWgHj9i-92" vertex="1">
          <mxGeometry y="54" width="280" height="26" as="geometry" />
        </mxCell>
        <mxCell id="AeCEf1UCao7Z_vWgHj9i-94" value="" style="line;strokeWidth=1;fillColor=none;align=left;verticalAlign=middle;spacingTop=-1;spacingLeft=3;spacingRight=3;rotatable=0;labelPosition=right;points=[];portConstraint=eastwest;" parent="AeCEf1UCao7Z_vWgHj9i-92" vertex="1">
          <mxGeometry y="80" width="280" height="8" as="geometry" />
        </mxCell>
        <mxCell id="w_uHxVpiJhdYi6DjlOEM-48" value="+ Vehicle.Scania(nrDoors : int, enginePower : double, &#xa;                   currentSpeed : double, color : Color, &#xa;                   modelName : String)" style="text;strokeColor=none;fillColor=none;align=left;verticalAlign=top;spacingLeft=4;spacingRight=4;overflow=hidden;rotatable=0;points=[[0,0.5],[1,0.5]];portConstraint=eastwest;" parent="AeCEf1UCao7Z_vWgHj9i-92" vertex="1">
          <mxGeometry y="88" width="280" height="52" as="geometry" />
        </mxCell>
        <mxCell id="w_uHxVpiJhdYi6DjlOEM-53" value="+ raiseRamp(): void" style="text;strokeColor=none;fillColor=none;align=left;verticalAlign=top;spacingLeft=4;spacingRight=4;overflow=hidden;rotatable=0;points=[[0,0.5],[1,0.5]];portConstraint=eastwest;" parent="AeCEf1UCao7Z_vWgHj9i-92" vertex="1">
          <mxGeometry y="140" width="280" height="26" as="geometry" />
        </mxCell>
        <mxCell id="w_uHxVpiJhdYi6DjlOEM-54" value="+ lowerRamp(): void" style="text;strokeColor=none;fillColor=none;align=left;verticalAlign=top;spacingLeft=4;spacingRight=4;overflow=hidden;rotatable=0;points=[[0,0.5],[1,0.5]];portConstraint=eastwest;" parent="AeCEf1UCao7Z_vWgHj9i-92" vertex="1">
          <mxGeometry y="166" width="280" height="26" as="geometry" />
        </mxCell>
        <mxCell id="w_uHxVpiJhdYi6DjlOEM-55" value="+ isPlatformRaised(): boolean " style="text;strokeColor=none;fillColor=none;align=left;verticalAlign=top;spacingLeft=4;spacingRight=4;overflow=hidden;rotatable=0;points=[[0,0.5],[1,0.5]];portConstraint=eastwest;" parent="AeCEf1UCao7Z_vWgHj9i-92" vertex="1">
          <mxGeometry y="192" width="280" height="26" as="geometry" />
        </mxCell>
        <mxCell id="AeCEf1UCao7Z_vWgHj9i-103" value="+ raisePlatformAngle(angle:int): void" style="text;strokeColor=none;fillColor=none;align=left;verticalAlign=top;spacingLeft=4;spacingRight=4;overflow=hidden;rotatable=0;points=[[0,0.5],[1,0.5]];portConstraint=eastwest;" parent="AeCEf1UCao7Z_vWgHj9i-92" vertex="1">
          <mxGeometry y="218" width="280" height="26" as="geometry" />
        </mxCell>
        <mxCell id="w_uHxVpiJhdYi6DjlOEM-56" value="+ isStationary(): boolean " style="text;strokeColor=none;fillColor=none;align=left;verticalAlign=top;spacingLeft=4;spacingRight=4;overflow=hidden;rotatable=0;points=[[0,0.5],[1,0.5]];portConstraint=eastwest;" parent="AeCEf1UCao7Z_vWgHj9i-92" vertex="1">
          <mxGeometry y="244" width="280" height="26" as="geometry" />
        </mxCell>
        <mxCell id="w_uHxVpiJhdYi6DjlOEM-57" value="+ raiseOrLowerRamp(): void" style="text;strokeColor=none;fillColor=none;align=left;verticalAlign=top;spacingLeft=4;spacingRight=4;overflow=hidden;rotatable=0;points=[[0,0.5],[1,0.5]];portConstraint=eastwest;" parent="AeCEf1UCao7Z_vWgHj9i-92" vertex="1">
          <mxGeometry y="270" width="280" height="26" as="geometry" />
        </mxCell>
        <mxCell id="AeCEf1UCao7Z_vWgHj9i-106" value="+ canRaisePlatformAngle(): boolean" style="text;strokeColor=none;fillColor=none;align=left;verticalAlign=top;spacingLeft=4;spacingRight=4;overflow=hidden;rotatable=0;points=[[0,0.5],[1,0.5]];portConstraint=eastwest;" parent="AeCEf1UCao7Z_vWgHj9i-92" vertex="1">
          <mxGeometry y="296" width="280" height="26" as="geometry" />
        </mxCell>
        <mxCell id="AeCEf1UCao7Z_vWgHj9i-107" value="+ isPlatformRaised(): boolean" style="text;strokeColor=none;fillColor=none;align=left;verticalAlign=top;spacingLeft=4;spacingRight=4;overflow=hidden;rotatable=0;points=[[0,0.5],[1,0.5]];portConstraint=eastwest;" parent="AeCEf1UCao7Z_vWgHj9i-92" vertex="1">
          <mxGeometry y="322" width="280" height="26" as="geometry" />
        </mxCell>
        <mxCell id="AeCEf1UCao7Z_vWgHj9i-108" value="+ speedFactor(): double" style="text;strokeColor=none;fillColor=none;align=left;verticalAlign=top;spacingLeft=4;spacingRight=4;overflow=hidden;rotatable=0;points=[[0,0.5],[1,0.5]];portConstraint=eastwest;" parent="AeCEf1UCao7Z_vWgHj9i-92" vertex="1">
          <mxGeometry y="348" width="280" height="26" as="geometry" />
        </mxCell>
        <mxCell id="AeCEf1UCao7Z_vWgHj9i-112" value="+ gas(amount : double): void" style="text;strokeColor=none;fillColor=none;align=left;verticalAlign=top;spacingLeft=4;spacingRight=4;overflow=hidden;rotatable=0;points=[[0,0.5],[1,0.5]];portConstraint=eastwest;" parent="AeCEf1UCao7Z_vWgHj9i-92" vertex="1">
          <mxGeometry y="374" width="280" height="26" as="geometry" />
        </mxCell>
        <mxCell id="AeCEf1UCao7Z_vWgHj9i-111" value="+ startEngine(): void" style="text;strokeColor=none;fillColor=none;align=left;verticalAlign=top;spacingLeft=4;spacingRight=4;overflow=hidden;rotatable=0;points=[[0,0.5],[1,0.5]];portConstraint=eastwest;" parent="AeCEf1UCao7Z_vWgHj9i-92" vertex="1">
          <mxGeometry y="400" width="280" height="26" as="geometry" />
        </mxCell>
        <mxCell id="c6Yin783V5zbYkg2d5zs-27" value="" style="endArrow=open;endFill=1;endSize=12;html=1;entryX=0.414;entryY=1.247;entryDx=0;entryDy=0;entryPerimeter=0;" parent="AeCEf1UCao7Z_vWgHj9i-92" target="AeCEf1UCao7Z_vWgHj9i-105" edge="1">
          <mxGeometry width="160" relative="1" as="geometry">
            <mxPoint x="50" y="-2" as="sourcePoint" />
            <mxPoint x="210" y="-2" as="targetPoint" />
          </mxGeometry>
        </mxCell>
        <mxCell id="AeCEf1UCao7Z_vWgHj9i-65" value="Vehicle.CarRepairShop&#xa;&lt;C extends Vehicle.Vehicle.Car&gt;" style="swimlane;fontStyle=1;align=center;verticalAlign=top;childLayout=stackLayout;horizontal=1;startSize=40;horizontalStack=0;resizeParent=1;resizeParentMax=0;resizeLast=0;collapsible=1;marginBottom=0;strokeColor=#000000;fillColor=none;shadow=1;" parent="1" vertex="1">
          <mxGeometry x="2200" y="932" width="240" height="236" as="geometry" />
        </mxCell>
        <mxCell id="AeCEf1UCao7Z_vWgHj9i-66" value="- cars: List&lt;C&gt;" style="text;strokeColor=none;fillColor=none;align=left;verticalAlign=top;spacingLeft=4;spacingRight=4;overflow=hidden;rotatable=0;points=[[0,0.5],[1,0.5]];portConstraint=eastwest;shadow=1;" parent="AeCEf1UCao7Z_vWgHj9i-65" vertex="1">
          <mxGeometry y="40" width="240" height="26" as="geometry" />
        </mxCell>
        <mxCell id="AeCEf1UCao7Z_vWgHj9i-67" value="- maxSize: int" style="text;strokeColor=none;fillColor=none;align=left;verticalAlign=top;spacingLeft=4;spacingRight=4;overflow=hidden;rotatable=0;points=[[0,0.5],[1,0.5]];portConstraint=eastwest;shadow=1;" parent="AeCEf1UCao7Z_vWgHj9i-65" vertex="1">
          <mxGeometry y="66" width="240" height="26" as="geometry" />
        </mxCell>
        <mxCell id="AeCEf1UCao7Z_vWgHj9i-68" value="" style="line;strokeWidth=1;fillColor=none;align=left;verticalAlign=middle;spacingTop=-1;spacingLeft=3;spacingRight=3;rotatable=0;labelPosition=right;points=[];portConstraint=eastwest;shadow=1;" parent="AeCEf1UCao7Z_vWgHj9i-65" vertex="1">
          <mxGeometry y="92" width="240" height="8" as="geometry" />
        </mxCell>
        <mxCell id="w_uHxVpiJhdYi6DjlOEM-61" value="+ Vehicle.CarRepairShop(maxSize : int)" style="text;strokeColor=none;fillColor=none;align=left;verticalAlign=top;spacingLeft=4;spacingRight=4;overflow=hidden;rotatable=0;points=[[0,0.5],[1,0.5]];portConstraint=eastwest;" parent="AeCEf1UCao7Z_vWgHj9i-65" vertex="1">
          <mxGeometry y="100" width="240" height="24" as="geometry" />
        </mxCell>
        <mxCell id="AeCEf1UCao7Z_vWgHj9i-69" value="+ loadCar(item : C): void " style="text;strokeColor=none;fillColor=none;align=left;verticalAlign=top;spacingLeft=4;spacingRight=4;overflow=hidden;rotatable=0;points=[[0,0.5],[1,0.5]];portConstraint=eastwest;shadow=1;" parent="AeCEf1UCao7Z_vWgHj9i-65" vertex="1">
          <mxGeometry y="124" width="240" height="26" as="geometry" />
        </mxCell>
        <mxCell id="AeCEf1UCao7Z_vWgHj9i-70" value="&lt;span style=&quot;color: rgb(0 , 0 , 0) ; font-family: &amp;#34;helvetica&amp;#34; ; font-size: 12px ; font-style: normal ; font-weight: 400 ; letter-spacing: normal ; text-align: left ; text-indent: 0px ; text-transform: none ; word-spacing: 0px ; background-color: rgb(248 , 249 , 250) ; display: inline ; float: none&quot;&gt;&amp;nbsp;+ removeCar&lt;span style=&quot;font-family: &amp;#34;helvetica&amp;#34;&quot;&gt;(item : C):&lt;/span&gt;&amp;nbsp;void&amp;nbsp;&lt;/span&gt;" style="text;whiteSpace=wrap;html=1;fillColor=none;shadow=1;" parent="AeCEf1UCao7Z_vWgHj9i-65" vertex="1">
          <mxGeometry y="150" width="240" height="30" as="geometry" />
        </mxCell>
        <mxCell id="AeCEf1UCao7Z_vWgHj9i-102" value="+ getCars(): List&lt;C&gt;" style="text;strokeColor=none;fillColor=none;align=left;verticalAlign=top;spacingLeft=4;spacingRight=4;overflow=hidden;rotatable=0;points=[[0,0.5],[1,0.5]];portConstraint=eastwest;shadow=1;" parent="AeCEf1UCao7Z_vWgHj9i-65" vertex="1">
          <mxGeometry y="180" width="240" height="26" as="geometry" />
        </mxCell>
        <mxCell id="AeCEf1UCao7Z_vWgHj9i-72" value="&lt;span style=&quot;color: rgb(0 , 0 , 0) ; font-family: &amp;#34;helvetica&amp;#34; ; font-size: 12px ; font-style: normal ; font-weight: 400 ; letter-spacing: normal ; text-align: left ; text-indent: 0px ; text-transform: none ; word-spacing: 0px ; background-color: rgb(248 , 249 , 250) ; display: inline ; float: none&quot;&gt;&amp;nbsp;public static void main(String[] args)&lt;/span&gt;" style="text;whiteSpace=wrap;html=1;fillColor=none;shadow=1;" parent="AeCEf1UCao7Z_vWgHj9i-65" vertex="1">
          <mxGeometry y="206" width="240" height="30" as="geometry" />
        </mxCell>
        <mxCell id="fS1m_hfCymx0pJezLY5b-1" value="Extends" style="endArrow=block;endSize=16;endFill=0;html=1;exitX=0.5;exitY=0;exitDx=0;exitDy=0;entryX=0.5;entryY=1;entryDx=0;entryDy=0;" parent="1" source="AeCEf1UCao7Z_vWgHj9i-1" target="AeCEf1UCao7Z_vWgHj9i-61" edge="1">
          <mxGeometry width="160" relative="1" as="geometry">
            <mxPoint x="1270" y="718.5" as="sourcePoint" />
            <mxPoint x="1270" y="609.5" as="targetPoint" />
          </mxGeometry>
        </mxCell>
        <mxCell id="w_uHxVpiJhdYi6DjlOEM-3" value="Vehicle.Turbo" style="swimlane;fontStyle=1;align=center;verticalAlign=top;childLayout=stackLayout;horizontal=1;startSize=26;horizontalStack=0;resizeParent=1;resizeParentMax=0;resizeLast=0;collapsible=1;marginBottom=0;" parent="1" vertex="1">
          <mxGeometry x="767" y="859.74" width="160" height="138" as="geometry" />
        </mxCell>
        <mxCell id="c6Yin783V5zbYkg2d5zs-18" value="" style="endArrow=block;dashed=1;endFill=0;endSize=12;html=1;" parent="w_uHxVpiJhdYi6DjlOEM-3" edge="1">
          <mxGeometry width="160" relative="1" as="geometry">
            <mxPoint x="73" y="0.2599999999999909" as="sourcePoint" />
            <mxPoint x="73" y="-109.74000000000001" as="targetPoint" />
          </mxGeometry>
        </mxCell>
        <mxCell id="w_uHxVpiJhdYi6DjlOEM-4" value="- turboOn : boolean" style="text;strokeColor=none;fillColor=none;align=left;verticalAlign=top;spacingLeft=4;spacingRight=4;overflow=hidden;rotatable=0;points=[[0,0.5],[1,0.5]];portConstraint=eastwest;fontStyle=0" parent="w_uHxVpiJhdYi6DjlOEM-3" vertex="1">
          <mxGeometry y="26" width="160" height="26" as="geometry" />
        </mxCell>
        <mxCell id="w_uHxVpiJhdYi6DjlOEM-5" value="" style="line;strokeWidth=1;fillColor=none;align=left;verticalAlign=middle;spacingTop=-1;spacingLeft=3;spacingRight=3;rotatable=0;labelPosition=right;points=[];portConstraint=eastwest;" parent="w_uHxVpiJhdYi6DjlOEM-3" vertex="1">
          <mxGeometry y="52" width="160" height="8" as="geometry" />
        </mxCell>
        <mxCell id="w_uHxVpiJhdYi6DjlOEM-7" value="+ setTurboOn(): void" style="text;strokeColor=none;fillColor=none;align=left;verticalAlign=top;spacingLeft=4;spacingRight=4;overflow=hidden;rotatable=0;points=[[0,0.5],[1,0.5]];portConstraint=eastwest;" parent="w_uHxVpiJhdYi6DjlOEM-3" vertex="1">
          <mxGeometry y="60" width="160" height="26" as="geometry" />
        </mxCell>
        <mxCell id="w_uHxVpiJhdYi6DjlOEM-8" value="+ setTurboOff(): void" style="text;strokeColor=none;fillColor=none;align=left;verticalAlign=top;spacingLeft=4;spacingRight=4;overflow=hidden;rotatable=0;points=[[0,0.5],[1,0.5]];portConstraint=eastwest;" parent="w_uHxVpiJhdYi6DjlOEM-3" vertex="1">
          <mxGeometry y="86" width="160" height="26" as="geometry" />
        </mxCell>
        <mxCell id="w_uHxVpiJhdYi6DjlOEM-9" value="+ isTurboOn(): boolean" style="text;strokeColor=none;fillColor=none;align=left;verticalAlign=top;spacingLeft=4;spacingRight=4;overflow=hidden;rotatable=0;points=[[0,0.5],[1,0.5]];portConstraint=eastwest;" parent="w_uHxVpiJhdYi6DjlOEM-3" vertex="1">
          <mxGeometry y="112" width="160" height="26" as="geometry" />
        </mxCell>
        <mxCell id="w_uHxVpiJhdYi6DjlOEM-17" value="1" style="endArrow=open;html=1;endSize=12;startArrow=diamondThin;startSize=14;startFill=1;edgeStyle=orthogonalEdgeStyle;align=left;verticalAlign=bottom;entryX=0;entryY=0.5;entryDx=0;entryDy=0;" parent="1" source="w_uHxVpiJhdYi6DjlOEM-19" target="w_uHxVpiJhdYi6DjlOEM-4" edge="1">
          <mxGeometry x="-1" y="3" relative="1" as="geometry">
            <mxPoint x="630" y="839.74" as="sourcePoint" />
            <mxPoint x="600" y="898.74" as="targetPoint" />
          </mxGeometry>
        </mxCell>
        <mxCell id="w_uHxVpiJhdYi6DjlOEM-18" value="Vehicle.Saab95" style="swimlane;fontStyle=1;align=center;verticalAlign=top;childLayout=stackLayout;horizontal=1;startSize=26;horizontalStack=0;resizeParent=1;resizeParentMax=0;resizeLast=0;collapsible=1;marginBottom=0;" parent="1" vertex="1">
          <mxGeometry x="400" y="859.74" width="270" height="224" as="geometry" />
        </mxCell>
        <mxCell id="c6Yin783V5zbYkg2d5zs-28" value="" style="endArrow=open;endFill=1;endSize=12;html=1;entryX=0;entryY=0.5;entryDx=0;entryDy=0;" parent="w_uHxVpiJhdYi6DjlOEM-18" target="c6Yin783V5zbYkg2d5zs-15" edge="1">
          <mxGeometry width="160" relative="1" as="geometry">
            <mxPoint x="190" y="0.2599999999999909" as="sourcePoint" />
            <mxPoint x="350" y="0.2599999999999909" as="targetPoint" />
          </mxGeometry>
        </mxCell>
        <mxCell id="w_uHxVpiJhdYi6DjlOEM-19" value="- turbo : Vehicle.Turbo" style="text;strokeColor=none;fillColor=none;align=left;verticalAlign=top;spacingLeft=4;spacingRight=4;overflow=hidden;rotatable=0;points=[[0,0.5],[1,0.5]];portConstraint=eastwest;fontStyle=0" parent="w_uHxVpiJhdYi6DjlOEM-18" vertex="1">
          <mxGeometry y="26" width="270" height="26" as="geometry" />
        </mxCell>
        <mxCell id="w_uHxVpiJhdYi6DjlOEM-20" value="" style="line;strokeWidth=1;fillColor=none;align=left;verticalAlign=middle;spacingTop=-1;spacingLeft=3;spacingRight=3;rotatable=0;labelPosition=right;points=[];portConstraint=eastwest;" parent="w_uHxVpiJhdYi6DjlOEM-18" vertex="1">
          <mxGeometry y="52" width="270" height="8" as="geometry" />
        </mxCell>
        <mxCell id="w_uHxVpiJhdYi6DjlOEM-26" value="+ Vehicle.Saab95(nrDoors : int, enginePower : double, &#xa;                   currentSpeed : double, color : Color, &#xa;                   modelName : String)" style="text;strokeColor=none;fillColor=none;align=left;verticalAlign=top;spacingLeft=4;spacingRight=4;overflow=hidden;rotatable=0;points=[[0,0.5],[1,0.5]];portConstraint=eastwest;" parent="w_uHxVpiJhdYi6DjlOEM-18" vertex="1">
          <mxGeometry y="60" width="270" height="60" as="geometry" />
        </mxCell>
        <mxCell id="w_uHxVpiJhdYi6DjlOEM-21" value="+ setTurboOn(): void" style="text;strokeColor=none;fillColor=none;align=left;verticalAlign=top;spacingLeft=4;spacingRight=4;overflow=hidden;rotatable=0;points=[[0,0.5],[1,0.5]];portConstraint=eastwest;" parent="w_uHxVpiJhdYi6DjlOEM-18" vertex="1">
          <mxGeometry y="120" width="270" height="26" as="geometry" />
        </mxCell>
        <mxCell id="w_uHxVpiJhdYi6DjlOEM-22" value="+ setTurboOff(): void" style="text;strokeColor=none;fillColor=none;align=left;verticalAlign=top;spacingLeft=4;spacingRight=4;overflow=hidden;rotatable=0;points=[[0,0.5],[1,0.5]];portConstraint=eastwest;" parent="w_uHxVpiJhdYi6DjlOEM-18" vertex="1">
          <mxGeometry y="146" width="270" height="26" as="geometry" />
        </mxCell>
        <mxCell id="w_uHxVpiJhdYi6DjlOEM-23" value="+ isTurboOn(): boolean" style="text;strokeColor=none;fillColor=none;align=left;verticalAlign=top;spacingLeft=4;spacingRight=4;overflow=hidden;rotatable=0;points=[[0,0.5],[1,0.5]];portConstraint=eastwest;" parent="w_uHxVpiJhdYi6DjlOEM-18" vertex="1">
          <mxGeometry y="172" width="270" height="26" as="geometry" />
        </mxCell>
        <mxCell id="AeCEf1UCao7Z_vWgHj9i-51" value="+ speedFactor(): double" style="text;strokeColor=none;fillColor=none;align=left;verticalAlign=top;spacingLeft=4;spacingRight=4;overflow=hidden;rotatable=0;points=[[0,0.5],[1,0.5]];portConstraint=eastwest;" parent="w_uHxVpiJhdYi6DjlOEM-18" vertex="1">
          <mxGeometry y="198" width="270" height="26" as="geometry" />
        </mxCell>
        <mxCell id="w_uHxVpiJhdYi6DjlOEM-30" value="Vehicle.Ramp" style="swimlane;fontStyle=1;align=center;verticalAlign=top;childLayout=stackLayout;horizontal=1;startSize=28;horizontalStack=0;resizeParent=1;resizeParentMax=0;resizeLast=0;collapsible=1;marginBottom=0;" parent="1" vertex="1">
          <mxGeometry x="1440" y="932" width="160" height="140" as="geometry" />
        </mxCell>
        <mxCell id="w_uHxVpiJhdYi6DjlOEM-31" value="- rampUp : boolean" style="text;strokeColor=none;fillColor=none;align=left;verticalAlign=top;spacingLeft=4;spacingRight=4;overflow=hidden;rotatable=0;points=[[0,0.5],[1,0.5]];portConstraint=eastwest;fontStyle=0" parent="w_uHxVpiJhdYi6DjlOEM-30" vertex="1">
          <mxGeometry y="28" width="160" height="26" as="geometry" />
        </mxCell>
        <mxCell id="w_uHxVpiJhdYi6DjlOEM-32" value="" style="line;strokeWidth=1;fillColor=none;align=left;verticalAlign=middle;spacingTop=-1;spacingLeft=3;spacingRight=3;rotatable=0;labelPosition=right;points=[];portConstraint=eastwest;" parent="w_uHxVpiJhdYi6DjlOEM-30" vertex="1">
          <mxGeometry y="54" width="160" height="8" as="geometry" />
        </mxCell>
        <mxCell id="w_uHxVpiJhdYi6DjlOEM-34" value="+ raiseRamp(): void" style="text;strokeColor=none;fillColor=none;align=left;verticalAlign=top;spacingLeft=4;spacingRight=4;overflow=hidden;rotatable=0;points=[[0,0.5],[1,0.5]];portConstraint=eastwest;" parent="w_uHxVpiJhdYi6DjlOEM-30" vertex="1">
          <mxGeometry y="62" width="160" height="26" as="geometry" />
        </mxCell>
        <mxCell id="w_uHxVpiJhdYi6DjlOEM-35" value="+ lowerRamp(): void" style="text;strokeColor=none;fillColor=none;align=left;verticalAlign=top;spacingLeft=4;spacingRight=4;overflow=hidden;rotatable=0;points=[[0,0.5],[1,0.5]];portConstraint=eastwest;" parent="w_uHxVpiJhdYi6DjlOEM-30" vertex="1">
          <mxGeometry y="88" width="160" height="26" as="geometry" />
        </mxCell>
        <mxCell id="w_uHxVpiJhdYi6DjlOEM-33" value="+ isRampRaised(): boolean " style="text;strokeColor=none;fillColor=none;align=left;verticalAlign=top;spacingLeft=4;spacingRight=4;overflow=hidden;rotatable=0;points=[[0,0.5],[1,0.5]];portConstraint=eastwest;" parent="w_uHxVpiJhdYi6DjlOEM-30" vertex="1">
          <mxGeometry y="114" width="160" height="26" as="geometry" />
        </mxCell>
        <mxCell id="w_uHxVpiJhdYi6DjlOEM-45" value="1" style="endArrow=open;html=1;endSize=12;startArrow=diamondThin;startSize=14;startFill=1;edgeStyle=orthogonalEdgeStyle;align=left;verticalAlign=bottom;exitX=1;exitY=0.5;exitDx=0;exitDy=0;" parent="1" source="w_uHxVpiJhdYi6DjlOEM-43" target="w_uHxVpiJhdYi6DjlOEM-31" edge="1">
          <mxGeometry x="-0.8333" relative="1" as="geometry">
            <mxPoint x="1190" y="1050" as="sourcePoint" />
            <mxPoint x="1350" y="1050" as="targetPoint" />
            <mxPoint as="offset" />
          </mxGeometry>
        </mxCell>
        <mxCell id="w_uHxVpiJhdYi6DjlOEM-47" value="1" style="endArrow=open;html=1;endSize=12;startArrow=diamondThin;startSize=14;startFill=1;edgeStyle=orthogonalEdgeStyle;align=left;verticalAlign=bottom;exitX=0;exitY=0.5;exitDx=0;exitDy=0;entryX=1;entryY=0.5;entryDx=0;entryDy=0;" parent="1" source="AeCEf1UCao7Z_vWgHj9i-3" target="w_uHxVpiJhdYi6DjlOEM-31" edge="1">
          <mxGeometry x="-0.6667" relative="1" as="geometry">
            <mxPoint x="1520" y="1050" as="sourcePoint" />
            <mxPoint x="1680" y="1050" as="targetPoint" />
            <mxPoint as="offset" />
          </mxGeometry>
        </mxCell>
        <mxCell id="Z_tI0dn7aJH7XG_BfM5y-2" value="VehicleView" style="swimlane;fontStyle=1;align=center;verticalAlign=top;childLayout=stackLayout;horizontal=1;startSize=26;horizontalStack=0;resizeParent=1;resizeParentMax=0;resizeLast=0;collapsible=1;marginBottom=0;" parent="1" vertex="1">
          <mxGeometry x="3150" y="900" width="220" height="208" as="geometry" />
        </mxCell>
        <mxCell id="Z_tI0dn7aJH7XG_BfM5y-3" value="&lt;&lt;final&gt;&gt; - X : int" style="text;strokeColor=none;fillColor=none;align=left;verticalAlign=top;spacingLeft=4;spacingRight=4;overflow=hidden;rotatable=0;points=[[0,0.5],[1,0.5]];portConstraint=eastwest;fontStyle=4" parent="Z_tI0dn7aJH7XG_BfM5y-2" vertex="1">
          <mxGeometry y="26" width="220" height="26" as="geometry" />
        </mxCell>
        <mxCell id="Z_tI0dn7aJH7XG_BfM5y-13" value="&lt;&lt;final&gt;&gt; - Y : int" style="text;strokeColor=none;fillColor=none;align=left;verticalAlign=top;spacingLeft=4;spacingRight=4;overflow=hidden;rotatable=0;points=[[0,0.5],[1,0.5]];portConstraint=eastwest;fontStyle=4" parent="Z_tI0dn7aJH7XG_BfM5y-2" vertex="1">
          <mxGeometry y="52" width="220" height="26" as="geometry" />
        </mxCell>
        <mxCell id="Z_tI0dn7aJH7XG_BfM5y-16" value="* drawPanel : DrawPanel" style="text;strokeColor=none;fillColor=none;align=left;verticalAlign=top;spacingLeft=4;spacingRight=4;overflow=hidden;rotatable=0;points=[[0,0.5],[1,0.5]];portConstraint=eastwest;" parent="Z_tI0dn7aJH7XG_BfM5y-2" vertex="1">
          <mxGeometry y="78" width="220" height="26" as="geometry" />
        </mxCell>
        <mxCell id="Z_tI0dn7aJH7XG_BfM5y-21" value="* controlPanel : JPanel" style="text;strokeColor=none;fillColor=none;align=left;verticalAlign=top;spacingLeft=4;spacingRight=4;overflow=hidden;rotatable=0;points=[[0,0.5],[1,0.5]];portConstraint=eastwest;" parent="Z_tI0dn7aJH7XG_BfM5y-2" vertex="1">
          <mxGeometry y="104" width="220" height="26" as="geometry" />
        </mxCell>
        <mxCell id="Z_tI0dn7aJH7XG_BfM5y-5" value="+CarView(frameName: String,&#xa; drawPanel: DrawPanel)" style="text;strokeColor=none;fillColor=none;align=left;verticalAlign=top;spacingLeft=4;spacingRight=4;overflow=hidden;rotatable=0;points=[[0,0.5],[1,0.5]];portConstraint=eastwest;" parent="Z_tI0dn7aJH7XG_BfM5y-2" vertex="1">
          <mxGeometry y="130" width="220" height="44" as="geometry" />
        </mxCell>
        <mxCell id="j2hkmLixcF60nlP_8ZF7-60" value="" style="line;strokeWidth=1;fillColor=none;align=left;verticalAlign=middle;spacingTop=-1;spacingLeft=3;spacingRight=3;rotatable=0;labelPosition=right;points=[];portConstraint=eastwest;" parent="Z_tI0dn7aJH7XG_BfM5y-2" vertex="1">
          <mxGeometry y="174" width="220" height="8" as="geometry" />
        </mxCell>
        <mxCell id="Z_tI0dn7aJH7XG_BfM5y-45" value="- initComponents(title : String) : void" style="text;strokeColor=none;fillColor=none;align=left;verticalAlign=top;spacingLeft=4;spacingRight=4;overflow=hidden;rotatable=0;points=[[0,0.5],[1,0.5]];portConstraint=eastwest;" parent="Z_tI0dn7aJH7XG_BfM5y-2" vertex="1">
          <mxGeometry y="182" width="220" height="26" as="geometry" />
        </mxCell>
        <mxCell id="Z_tI0dn7aJH7XG_BfM5y-6" value="JFrame" style="swimlane;fontStyle=1;align=center;verticalAlign=top;childLayout=stackLayout;horizontal=1;startSize=33;horizontalStack=0;resizeParent=1;resizeParentMax=0;resizeLast=0;collapsible=1;marginBottom=0;" parent="1" vertex="1">
          <mxGeometry x="3180" y="740" width="160" height="34" as="geometry" />
        </mxCell>
        <mxCell id="Z_tI0dn7aJH7XG_BfM5y-11" value="Extends" style="endArrow=block;endSize=16;endFill=0;html=1;exitX=0.5;exitY=0;exitDx=0;exitDy=0;entryX=0.5;entryY=1;entryDx=0;entryDy=0;" parent="1" source="Z_tI0dn7aJH7XG_BfM5y-2" target="Z_tI0dn7aJH7XG_BfM5y-6" edge="1">
          <mxGeometry width="160" relative="1" as="geometry">
            <mxPoint x="2910" y="921" as="sourcePoint" />
            <mxPoint x="3070" y="921" as="targetPoint" />
          </mxGeometry>
        </mxCell>
        <mxCell id="Z_tI0dn7aJH7XG_BfM5y-46" value="EngineController" style="swimlane;fontStyle=1;align=center;verticalAlign=top;childLayout=stackLayout;horizontal=1;startSize=26;horizontalStack=0;resizeParent=1;resizeParentMax=0;resizeLast=0;collapsible=1;marginBottom=0;" parent="1" vertex="1">
          <mxGeometry x="3760" y="120" width="230" height="302" as="geometry" />
        </mxCell>
        <mxCell id="nzfRx3K8AlSWQh84RHSz-26" value="vehicles : ArrayList&lt;Vehicle&gt;" style="text;strokeColor=none;fillColor=none;align=left;verticalAlign=top;spacingLeft=4;spacingRight=4;overflow=hidden;rotatable=0;points=[[0,0.5],[1,0.5]];portConstraint=eastwest;labelBackgroundColor=none;" parent="Z_tI0dn7aJH7XG_BfM5y-46" vertex="1">
          <mxGeometry y="26" width="230" height="26" as="geometry" />
        </mxCell>
        <mxCell id="nzfRx3K8AlSWQh84RHSz-27" value="buttonView : ButtonView" style="text;strokeColor=none;fillColor=none;align=left;verticalAlign=top;spacingLeft=4;spacingRight=4;overflow=hidden;rotatable=0;points=[[0,0.5],[1,0.5]];portConstraint=eastwest;" parent="Z_tI0dn7aJH7XG_BfM5y-46" vertex="1">
          <mxGeometry y="52" width="230" height="26" as="geometry" />
        </mxCell>
        <mxCell id="nzfRx3K8AlSWQh84RHSz-28" value="enginePanel : JPanel" style="text;strokeColor=none;fillColor=none;align=left;verticalAlign=top;spacingLeft=4;spacingRight=4;overflow=hidden;rotatable=0;points=[[0,0.5],[1,0.5]];portConstraint=eastwest;" parent="Z_tI0dn7aJH7XG_BfM5y-46" vertex="1">
          <mxGeometry y="78" width="230" height="26" as="geometry" />
        </mxCell>
        <mxCell id="nzfRx3K8AlSWQh84RHSz-29" value="startButton : JButton" style="text;align=left;verticalAlign=top;spacingLeft=4;spacingRight=4;overflow=hidden;rotatable=0;points=[[0,0.5],[1,0.5]];portConstraint=eastwest;labelBackgroundColor=none;" parent="Z_tI0dn7aJH7XG_BfM5y-46" vertex="1">
          <mxGeometry y="104" width="230" height="26" as="geometry" />
        </mxCell>
        <mxCell id="nzfRx3K8AlSWQh84RHSz-30" value="stopButton : JButton" style="text;align=left;verticalAlign=top;spacingLeft=4;spacingRight=4;overflow=hidden;rotatable=0;points=[[0,0.5],[1,0.5]];portConstraint=eastwest;labelBackgroundColor=none;" parent="Z_tI0dn7aJH7XG_BfM5y-46" vertex="1">
          <mxGeometry y="130" width="230" height="26" as="geometry" />
        </mxCell>
        <mxCell id="j2hkmLixcF60nlP_8ZF7-51" value="" style="line;strokeWidth=1;fillColor=none;align=left;verticalAlign=middle;spacingTop=-1;spacingLeft=3;spacingRight=3;rotatable=0;labelPosition=right;points=[];portConstraint=eastwest;" parent="Z_tI0dn7aJH7XG_BfM5y-46" vertex="1">
          <mxGeometry y="156" width="230" height="8" as="geometry" />
        </mxCell>
        <mxCell id="nzfRx3K8AlSWQh84RHSz-31" value="&lt;span style=&quot;text-align: center&quot;&gt;+ EngineController(title : String)&lt;/span&gt;" style="text;whiteSpace=wrap;html=1;" parent="Z_tI0dn7aJH7XG_BfM5y-46" vertex="1">
          <mxGeometry y="164" width="230" height="30" as="geometry" />
        </mxCell>
        <mxCell id="nzfRx3K8AlSWQh84RHSz-32" value="&lt;font face=&quot;helvetica&quot;&gt;- initComponents(title : String): void&lt;/font&gt;" style="text;whiteSpace=wrap;html=1;" parent="Z_tI0dn7aJH7XG_BfM5y-46" vertex="1">
          <mxGeometry y="194" width="230" height="30" as="geometry" />
        </mxCell>
        <mxCell id="j2hkmLixcF60nlP_8ZF7-57" value="+ startAllVehicles() : void" style="text;strokeColor=none;fillColor=none;align=left;verticalAlign=top;spacingLeft=4;spacingRight=4;overflow=hidden;rotatable=0;points=[[0,0.5],[1,0.5]];portConstraint=eastwest;rounded=1;shadow=0;glass=1;sketch=0;" parent="Z_tI0dn7aJH7XG_BfM5y-46" vertex="1">
          <mxGeometry y="224" width="230" height="26" as="geometry" />
        </mxCell>
        <mxCell id="j2hkmLixcF60nlP_8ZF7-58" value="+ stopAllVehicles() : void" style="text;strokeColor=none;fillColor=none;align=left;verticalAlign=top;spacingLeft=4;spacingRight=4;overflow=hidden;rotatable=0;points=[[0,0.5],[1,0.5]];portConstraint=eastwest;rounded=1;shadow=0;glass=1;sketch=0;" parent="Z_tI0dn7aJH7XG_BfM5y-46" vertex="1">
          <mxGeometry y="250" width="230" height="26" as="geometry" />
        </mxCell>
        <mxCell id="nzfRx3K8AlSWQh84RHSz-33" value="+ addVehicle(vehicle : Vehicle) : void" style="text;strokeColor=none;fillColor=none;align=left;verticalAlign=top;spacingLeft=4;spacingRight=4;overflow=hidden;rotatable=0;points=[[0,0.5],[1,0.5]];portConstraint=eastwest;rounded=1;shadow=0;glass=1;sketch=0;" parent="Z_tI0dn7aJH7XG_BfM5y-46" vertex="1">
          <mxGeometry y="276" width="230" height="26" as="geometry" />
        </mxCell>
        <mxCell id="5gKmf4tzMt-Gp001ymEf-14" value="VehicleFactory" style="swimlane;fontStyle=1;childLayout=stackLayout;horizontal=1;startSize=26;fillColor=none;horizontalStack=0;resizeParent=1;resizeParentMax=0;resizeLast=0;collapsible=1;marginBottom=0;" parent="1" vertex="1">
          <mxGeometry x="2800" y="190" width="400" height="206" as="geometry" />
        </mxCell>
        <mxCell id="5gKmf4tzMt-Gp001ymEf-18" value="&lt;span style=&quot;color: rgb(0 , 0 , 0) ; font-family: &amp;#34;helvetica&amp;#34; ; font-size: 12px ; font-style: normal ; font-weight: 400 ; letter-spacing: normal ; text-align: left ; text-indent: 0px ; text-transform: none ; word-spacing: 0px ; background-color: rgb(248 , 249 , 250) ; display: inline ; float: none&quot;&gt;+ createVolvo240(x : double, y : double, nrDoors : int,&amp;nbsp;&lt;br&gt;&amp;nbsp; &amp;nbsp; &amp;nbsp; &amp;nbsp; &amp;nbsp; &amp;nbsp; &amp;nbsp; &amp;nbsp; &amp;nbsp; &amp;nbsp;enginePower : double,&lt;span&gt;&amp;nbsp;&lt;/span&gt;&lt;/span&gt;&lt;span style=&quot;color: rgb(0 , 0 , 0) ; font-family: &amp;#34;helvetica&amp;#34; ; font-size: 12px ; font-style: normal ; font-weight: 400 ; letter-spacing: normal ; text-align: left ; text-indent: 0px ; text-transform: none ; word-spacing: 0px ; background-color: rgb(248 , 249 , 250) ; display: inline ; float: none&quot;&gt;currentSpeed : double, color : Color,&lt;span&gt;&amp;nbsp;&lt;/span&gt;&lt;/span&gt;&lt;br style=&quot;padding: 0px ; margin: 0px ; color: rgb(0 , 0 , 0) ; font-family: &amp;#34;helvetica&amp;#34; ; font-size: 12px ; font-style: normal ; font-weight: 400 ; letter-spacing: normal ; text-align: left ; text-indent: 0px ; text-transform: none ; word-spacing: 0px ; background-color: rgb(248 , 249 , 250)&quot;&gt;&lt;span style=&quot;color: rgb(0 , 0 , 0) ; font-family: &amp;#34;helvetica&amp;#34; ; font-size: 12px ; font-style: normal ; font-weight: 400 ; letter-spacing: normal ; text-align: left ; text-indent: 0px ; text-transform: none ; word-spacing: 0px ; background-color: rgb(248 , 249 , 250) ; display: inline ; float: none&quot;&gt;&amp;nbsp; &amp;nbsp; &amp;nbsp; &amp;nbsp; &amp;nbsp; &amp;nbsp; &amp;nbsp; &amp;nbsp; &amp;nbsp; &amp;nbsp;modelName : String, directionAngle : int) : Vehicle.Vehicle&lt;/span&gt;" style="text;whiteSpace=wrap;html=1;" parent="5gKmf4tzMt-Gp001ymEf-14" vertex="1">
          <mxGeometry y="26" width="400" height="60" as="geometry" />
        </mxCell>
        <mxCell id="5gKmf4tzMt-Gp001ymEf-21" value="&lt;span style=&quot;color: rgb(0 , 0 , 0) ; font-family: &amp;#34;helvetica&amp;#34; ; font-size: 12px ; font-style: normal ; font-weight: 400 ; letter-spacing: normal ; text-align: left ; text-indent: 0px ; text-transform: none ; word-spacing: 0px ; background-color: rgb(248 , 249 , 250) ; display: inline ; float: none&quot;&gt;+&amp;nbsp;&lt;span style=&quot;font-family: &amp;#34;helvetica&amp;#34;&quot;&gt;createSaab95&lt;/span&gt;(x : double, y : double, nrDoors : int,&amp;nbsp;&lt;br&gt;&amp;nbsp; &amp;nbsp; &amp;nbsp; &amp;nbsp; &amp;nbsp; &amp;nbsp; &amp;nbsp; &amp;nbsp; &amp;nbsp; &amp;nbsp;enginePower : double,&lt;span&gt;&amp;nbsp;&lt;/span&gt;&lt;/span&gt;&lt;span style=&quot;color: rgb(0 , 0 , 0) ; font-family: &amp;#34;helvetica&amp;#34; ; font-size: 12px ; font-style: normal ; font-weight: 400 ; letter-spacing: normal ; text-align: left ; text-indent: 0px ; text-transform: none ; word-spacing: 0px ; background-color: rgb(248 , 249 , 250) ; display: inline ; float: none&quot;&gt;currentSpeed : double, color : Color,&lt;span&gt;&amp;nbsp;&lt;/span&gt;&lt;/span&gt;&lt;br style=&quot;padding: 0px ; margin: 0px ; color: rgb(0 , 0 , 0) ; font-family: &amp;#34;helvetica&amp;#34; ; font-size: 12px ; font-style: normal ; font-weight: 400 ; letter-spacing: normal ; text-align: left ; text-indent: 0px ; text-transform: none ; word-spacing: 0px ; background-color: rgb(248 , 249 , 250)&quot;&gt;&lt;span style=&quot;color: rgb(0 , 0 , 0) ; font-family: &amp;#34;helvetica&amp;#34; ; font-size: 12px ; font-style: normal ; font-weight: 400 ; letter-spacing: normal ; text-align: left ; text-indent: 0px ; text-transform: none ; word-spacing: 0px ; background-color: rgb(248 , 249 , 250) ; display: inline ; float: none&quot;&gt;&amp;nbsp; &amp;nbsp; &amp;nbsp; &amp;nbsp; &amp;nbsp; &amp;nbsp; &amp;nbsp; &amp;nbsp; &amp;nbsp; &amp;nbsp;modelName : String, directionAngle : int) : Vehicle.Vehicle&lt;/span&gt;" style="text;whiteSpace=wrap;html=1;" parent="5gKmf4tzMt-Gp001ymEf-14" vertex="1">
          <mxGeometry y="86" width="400" height="60" as="geometry" />
        </mxCell>
        <mxCell id="5gKmf4tzMt-Gp001ymEf-23" value="&lt;span style=&quot;color: rgb(0 , 0 , 0) ; font-family: &amp;#34;helvetica&amp;#34; ; font-size: 12px ; font-style: normal ; font-weight: 400 ; letter-spacing: normal ; text-align: left ; text-indent: 0px ; text-transform: none ; word-spacing: 0px ; background-color: rgb(248 , 249 , 250) ; display: inline ; float: none&quot;&gt;+ createScania(x : double, y : double, nrDoors : int,&amp;nbsp;&lt;br&gt;&amp;nbsp; &amp;nbsp; &amp;nbsp; &amp;nbsp; &amp;nbsp; &amp;nbsp; &amp;nbsp; &amp;nbsp; &amp;nbsp; &amp;nbsp;enginePower : double,&lt;span&gt;&amp;nbsp;&lt;/span&gt;&lt;/span&gt;&lt;span style=&quot;color: rgb(0 , 0 , 0) ; font-family: &amp;#34;helvetica&amp;#34; ; font-size: 12px ; font-style: normal ; font-weight: 400 ; letter-spacing: normal ; text-align: left ; text-indent: 0px ; text-transform: none ; word-spacing: 0px ; background-color: rgb(248 , 249 , 250) ; display: inline ; float: none&quot;&gt;currentSpeed : double, color : Color,&lt;span&gt;&amp;nbsp;&lt;/span&gt;&lt;/span&gt;&lt;br style=&quot;padding: 0px ; margin: 0px ; color: rgb(0 , 0 , 0) ; font-family: &amp;#34;helvetica&amp;#34; ; font-size: 12px ; font-style: normal ; font-weight: 400 ; letter-spacing: normal ; text-align: left ; text-indent: 0px ; text-transform: none ; word-spacing: 0px ; background-color: rgb(248 , 249 , 250)&quot;&gt;&lt;span style=&quot;color: rgb(0 , 0 , 0) ; font-family: &amp;#34;helvetica&amp;#34; ; font-size: 12px ; font-style: normal ; font-weight: 400 ; letter-spacing: normal ; text-align: left ; text-indent: 0px ; text-transform: none ; word-spacing: 0px ; background-color: rgb(248 , 249 , 250) ; display: inline ; float: none&quot;&gt;&amp;nbsp; &amp;nbsp; &amp;nbsp; &amp;nbsp; &amp;nbsp; &amp;nbsp; &amp;nbsp; &amp;nbsp; &amp;nbsp; &amp;nbsp;modelName : String, directionAngle : int) : Vehicle.Vehicle&lt;/span&gt;" style="text;whiteSpace=wrap;html=1;" parent="5gKmf4tzMt-Gp001ymEf-14" vertex="1">
          <mxGeometry y="146" width="400" height="60" as="geometry" />
        </mxCell>
        <mxCell id="5gKmf4tzMt-Gp001ymEf-24" value="Application" style="swimlane;fontStyle=1;align=center;verticalAlign=top;childLayout=stackLayout;horizontal=1;startSize=26;horizontalStack=0;resizeParent=1;resizeParentMax=0;resizeLast=0;collapsible=1;marginBottom=0;" parent="1" vertex="1">
          <mxGeometry x="3370" y="-60" width="230" height="62" as="geometry" />
        </mxCell>
        <mxCell id="5gKmf4tzMt-Gp001ymEf-26" value="" style="line;strokeWidth=1;fillColor=none;align=left;verticalAlign=middle;spacingTop=-1;spacingLeft=3;spacingRight=3;rotatable=0;labelPosition=right;points=[];portConstraint=eastwest;" parent="5gKmf4tzMt-Gp001ymEf-24" vertex="1">
          <mxGeometry y="26" width="230" height="8" as="geometry" />
        </mxCell>
        <mxCell id="5gKmf4tzMt-Gp001ymEf-28" value="public static void main(String[] args)" style="text;strokeColor=none;fillColor=none;align=left;verticalAlign=top;spacingLeft=4;spacingRight=4;overflow=hidden;rotatable=0;points=[[0,0.5],[1,0.5]];portConstraint=eastwest;" parent="5gKmf4tzMt-Gp001ymEf-24" vertex="1">
          <mxGeometry y="34" width="230" height="28" as="geometry" />
        </mxCell>
        <mxCell id="P7caBLrO7aC9ID0C06DI-10" value="Use" style="endArrow=open;endSize=12;dashed=1;html=1;entryX=0.5;entryY=0;entryDx=0;entryDy=0;exitX=0.505;exitY=1.097;exitDx=0;exitDy=0;exitPerimeter=0;" parent="1" source="5gKmf4tzMt-Gp001ymEf-28" target="5gKmf4tzMt-Gp001ymEf-14" edge="1">
          <mxGeometry width="160" relative="1" as="geometry">
            <mxPoint x="3440" y="80" as="sourcePoint" />
            <mxPoint x="3750" y="20" as="targetPoint" />
          </mxGeometry>
        </mxCell>
        <mxCell id="P7caBLrO7aC9ID0C06DI-12" value="Use" style="endArrow=open;endSize=12;dashed=1;html=1;entryX=0.5;entryY=0;entryDx=0;entryDy=0;exitX=0.501;exitY=1.008;exitDx=0;exitDy=0;exitPerimeter=0;" parent="1" source="5gKmf4tzMt-Gp001ymEf-28" target="Z_tI0dn7aJH7XG_BfM5y-46" edge="1">
          <mxGeometry width="160" relative="1" as="geometry">
            <mxPoint x="3520" y="170" as="sourcePoint" />
            <mxPoint x="3620" y="300" as="targetPoint" />
          </mxGeometry>
        </mxCell>
        <mxCell id="P7caBLrO7aC9ID0C06DI-5" value="Use" style="endArrow=open;endSize=12;dashed=1;html=1;entryX=0.5;entryY=0;entryDx=0;entryDy=0;exitX=0.497;exitY=1.125;exitDx=0;exitDy=0;exitPerimeter=0;" parent="1" source="5gKmf4tzMt-Gp001ymEf-28" target="Z_tI0dn7aJH7XG_BfM5y-2" edge="1">
          <mxGeometry width="160" relative="1" as="geometry">
            <mxPoint x="3230" y="105" as="sourcePoint" />
            <mxPoint x="3130" y="870" as="targetPoint" />
          </mxGeometry>
        </mxCell>
        <mxCell id="c6Yin783V5zbYkg2d5zs-10" value="Vehicle.HasTurbo&#xa;&lt;&lt;Interface&gt;&gt;" style="swimlane;fontStyle=1;align=center;verticalAlign=top;childLayout=stackLayout;horizontal=1;startSize=40;horizontalStack=0;resizeParent=1;resizeParentMax=0;resizeLast=0;collapsible=1;marginBottom=0;" parent="1" vertex="1">
          <mxGeometry x="780" y="630" width="160" height="118" as="geometry" />
        </mxCell>
        <mxCell id="c6Yin783V5zbYkg2d5zs-14" value="+ setTurboOn(): void" style="text;strokeColor=none;fillColor=none;align=left;verticalAlign=top;spacingLeft=4;spacingRight=4;overflow=hidden;rotatable=0;points=[[0,0.5],[1,0.5]];portConstraint=eastwest;" parent="c6Yin783V5zbYkg2d5zs-10" vertex="1">
          <mxGeometry y="40" width="160" height="26" as="geometry" />
        </mxCell>
        <mxCell id="c6Yin783V5zbYkg2d5zs-15" value="+ setTurboOff(): void" style="text;strokeColor=none;fillColor=none;align=left;verticalAlign=top;spacingLeft=4;spacingRight=4;overflow=hidden;rotatable=0;points=[[0,0.5],[1,0.5]];portConstraint=eastwest;" parent="c6Yin783V5zbYkg2d5zs-10" vertex="1">
          <mxGeometry y="66" width="160" height="26" as="geometry" />
        </mxCell>
        <mxCell id="c6Yin783V5zbYkg2d5zs-16" value="+ isTurboOn(): boolean" style="text;strokeColor=none;fillColor=none;align=left;verticalAlign=top;spacingLeft=4;spacingRight=4;overflow=hidden;rotatable=0;points=[[0,0.5],[1,0.5]];portConstraint=eastwest;" parent="c6Yin783V5zbYkg2d5zs-10" vertex="1">
          <mxGeometry y="92" width="160" height="26" as="geometry" />
        </mxCell>
        <mxCell id="c6Yin783V5zbYkg2d5zs-19" value="Vehicle.HasPlatform&#xa;&lt;&lt;Interface&gt;&gt;" style="swimlane;fontStyle=1;childLayout=stackLayout;horizontal=1;startSize=37;fillColor=none;horizontalStack=0;resizeParent=1;resizeParentMax=0;resizeLast=0;collapsible=1;marginBottom=0;" parent="1" vertex="1">
          <mxGeometry x="990" y="720" width="240" height="115" as="geometry" />
        </mxCell>
        <mxCell id="c6Yin783V5zbYkg2d5zs-24" value="+ raisePlatformAngle(angle:int): void" style="text;strokeColor=none;fillColor=none;align=left;verticalAlign=top;spacingLeft=4;spacingRight=4;overflow=hidden;rotatable=0;points=[[0,0.5],[1,0.5]];portConstraint=eastwest;" parent="c6Yin783V5zbYkg2d5zs-19" vertex="1">
          <mxGeometry y="37" width="240" height="26" as="geometry" />
        </mxCell>
        <mxCell id="c6Yin783V5zbYkg2d5zs-25" value="+ isPlatformRaised(): boolean " style="text;strokeColor=none;fillColor=none;align=left;verticalAlign=top;spacingLeft=4;spacingRight=4;overflow=hidden;rotatable=0;points=[[0,0.5],[1,0.5]];portConstraint=eastwest;" parent="c6Yin783V5zbYkg2d5zs-19" vertex="1">
          <mxGeometry y="63" width="240" height="26" as="geometry" />
        </mxCell>
        <mxCell id="AeCEf1UCao7Z_vWgHj9i-105" value="+ lowerPlatformAngle(angle:int): void" style="text;strokeColor=none;fillColor=none;align=left;verticalAlign=top;spacingLeft=4;spacingRight=4;overflow=hidden;rotatable=0;points=[[0,0.5],[1,0.5]];portConstraint=eastwest;" parent="c6Yin783V5zbYkg2d5zs-19" vertex="1">
          <mxGeometry y="89" width="240" height="26" as="geometry" />
        </mxCell>
        <mxCell id="j2hkmLixcF60nlP_8ZF7-3" value="Controller" style="text;align=center;fontStyle=1;verticalAlign=middle;spacingLeft=3;spacingRight=3;strokeColor=none;rotatable=0;points=[[0,0.5],[1,0.5]];portConstraint=eastwest;fillColor=none;fontSize=50;" parent="1" vertex="1">
          <mxGeometry x="3710" y="-223" width="250" height="64" as="geometry" />
        </mxCell>
        <mxCell id="OpwlPaw0gnE8BgqzogMv-1" value="TurboController" style="swimlane;fontStyle=1;align=center;verticalAlign=top;childLayout=stackLayout;horizontal=1;startSize=26;horizontalStack=0;resizeParent=1;resizeParentMax=0;resizeLast=0;collapsible=1;marginBottom=0;" parent="1" vertex="1">
          <mxGeometry x="4440" y="120" width="260" height="310" as="geometry" />
        </mxCell>
        <mxCell id="OpwlPaw0gnE8BgqzogMv-2" value="hasTurbos: ArrayList&lt;HasTurbo&gt;" style="text;strokeColor=none;fillColor=none;align=left;verticalAlign=top;spacingLeft=4;spacingRight=4;overflow=hidden;rotatable=0;points=[[0,0.5],[1,0.5]];portConstraint=eastwest;" parent="OpwlPaw0gnE8BgqzogMv-1" vertex="1">
          <mxGeometry y="26" width="260" height="26" as="geometry" />
        </mxCell>
        <mxCell id="nzfRx3K8AlSWQh84RHSz-34" value="buttonView : ButtonView" style="text;strokeColor=none;fillColor=none;align=left;verticalAlign=top;spacingLeft=4;spacingRight=4;overflow=hidden;rotatable=0;points=[[0,0.5],[1,0.5]];portConstraint=eastwest;" parent="OpwlPaw0gnE8BgqzogMv-1" vertex="1">
          <mxGeometry y="52" width="260" height="26" as="geometry" />
        </mxCell>
        <mxCell id="bGd2WQ48AGfHmZ8i3NYs-18" value="&lt;span style=&quot;color: rgb(0 , 0 , 0) ; font-family: &amp;#34;helvetica&amp;#34; ; font-size: 12px ; font-style: normal ; font-weight: 400 ; letter-spacing: normal ; text-align: left ; text-indent: 0px ; text-transform: none ; word-spacing: 0px ; background-color: rgb(248 , 249 , 250) ; display: inline ; float: none&quot;&gt;&amp;nbsp;turboPanel : JPanel&lt;/span&gt;" style="text;whiteSpace=wrap;html=1;" parent="OpwlPaw0gnE8BgqzogMv-1" vertex="1">
          <mxGeometry y="78" width="260" height="30" as="geometry" />
        </mxCell>
        <mxCell id="j2hkmLixcF60nlP_8ZF7-74" value="turboOnButton : JButton" style="text;strokeColor=none;fillColor=none;align=left;verticalAlign=top;spacingLeft=4;spacingRight=4;overflow=hidden;rotatable=0;points=[[0,0.5],[1,0.5]];portConstraint=eastwest;" parent="OpwlPaw0gnE8BgqzogMv-1" vertex="1">
          <mxGeometry y="108" width="260" height="26" as="geometry" />
        </mxCell>
        <mxCell id="j2hkmLixcF60nlP_8ZF7-75" value="turboOffButton : JButton" style="text;strokeColor=none;fillColor=none;align=left;verticalAlign=top;spacingLeft=4;spacingRight=4;overflow=hidden;rotatable=0;points=[[0,0.5],[1,0.5]];portConstraint=eastwest;" parent="OpwlPaw0gnE8BgqzogMv-1" vertex="1">
          <mxGeometry y="134" width="260" height="26" as="geometry" />
        </mxCell>
        <mxCell id="nzfRx3K8AlSWQh84RHSz-35" value="&lt;span style=&quot;color: rgb(0 , 0 , 0) ; font-family: &amp;#34;helvetica&amp;#34; ; font-size: 12px ; font-style: normal ; font-weight: 400 ; letter-spacing: normal ; text-align: left ; text-indent: 0px ; text-transform: none ; word-spacing: 0px ; background-color: rgb(248 , 249 , 250) ; display: inline ; float: none&quot;&gt;&amp;nbsp;world : World&lt;/span&gt;" style="text;whiteSpace=wrap;html=1;" parent="OpwlPaw0gnE8BgqzogMv-1" vertex="1">
          <mxGeometry y="160" width="260" height="30" as="geometry" />
        </mxCell>
        <mxCell id="OpwlPaw0gnE8BgqzogMv-3" value="" style="line;strokeWidth=1;fillColor=none;align=left;verticalAlign=middle;spacingTop=-1;spacingLeft=3;spacingRight=3;rotatable=0;labelPosition=right;points=[];portConstraint=eastwest;" parent="OpwlPaw0gnE8BgqzogMv-1" vertex="1">
          <mxGeometry y="190" width="260" height="8" as="geometry" />
        </mxCell>
        <mxCell id="nzfRx3K8AlSWQh84RHSz-36" value="&lt;span style=&quot;text-align: center&quot;&gt;+ TurboController(title : String, world : World)&lt;/span&gt;" style="text;whiteSpace=wrap;html=1;" parent="OpwlPaw0gnE8BgqzogMv-1" vertex="1">
          <mxGeometry y="198" width="260" height="30" as="geometry" />
        </mxCell>
        <mxCell id="nzfRx3K8AlSWQh84RHSz-37" value="&lt;font face=&quot;helvetica&quot;&gt;&amp;nbsp;- initComponents(title : String): void&lt;/font&gt;" style="text;whiteSpace=wrap;html=1;" parent="OpwlPaw0gnE8BgqzogMv-1" vertex="1">
          <mxGeometry y="228" width="260" height="30" as="geometry" />
        </mxCell>
        <mxCell id="OpwlPaw0gnE8BgqzogMv-4" value="- turboOn(): void" style="text;strokeColor=none;fillColor=none;align=left;verticalAlign=top;spacingLeft=4;spacingRight=4;overflow=hidden;rotatable=0;points=[[0,0.5],[1,0.5]];portConstraint=eastwest;rounded=1;shadow=0;glass=1;sketch=0;" parent="OpwlPaw0gnE8BgqzogMv-1" vertex="1">
          <mxGeometry y="258" width="260" height="26" as="geometry" />
        </mxCell>
        <mxCell id="OpwlPaw0gnE8BgqzogMv-5" value="- turboOff(): void" style="text;strokeColor=none;fillColor=none;align=left;verticalAlign=top;spacingLeft=4;spacingRight=4;overflow=hidden;rotatable=0;points=[[0,0.5],[1,0.5]];portConstraint=eastwest;rounded=1;shadow=0;glass=1;sketch=0;" parent="OpwlPaw0gnE8BgqzogMv-1" vertex="1">
          <mxGeometry y="284" width="260" height="26" as="geometry" />
        </mxCell>
        <mxCell id="OpwlPaw0gnE8BgqzogMv-7" value="PlatformController" style="swimlane;fontStyle=1;align=center;verticalAlign=top;childLayout=stackLayout;horizontal=1;startSize=26;horizontalStack=0;resizeParent=1;resizeParentMax=0;resizeLast=0;collapsible=1;marginBottom=0;" parent="1" vertex="1">
          <mxGeometry x="4800" y="124" width="280" height="306" as="geometry" />
        </mxCell>
        <mxCell id="OpwlPaw0gnE8BgqzogMv-8" value="hasPlatformList: ArrayList&lt;HasPlatform&gt;" style="text;strokeColor=none;fillColor=none;align=left;verticalAlign=top;spacingLeft=4;spacingRight=4;overflow=hidden;rotatable=0;points=[[0,0.5],[1,0.5]];portConstraint=eastwest;" parent="OpwlPaw0gnE8BgqzogMv-7" vertex="1">
          <mxGeometry y="26" width="280" height="26" as="geometry" />
        </mxCell>
        <mxCell id="nzfRx3K8AlSWQh84RHSz-38" value="buttonView : ButtonView" style="text;strokeColor=none;fillColor=none;align=left;verticalAlign=top;spacingLeft=4;spacingRight=4;overflow=hidden;rotatable=0;points=[[0,0.5],[1,0.5]];portConstraint=eastwest;" parent="OpwlPaw0gnE8BgqzogMv-7" vertex="1">
          <mxGeometry y="52" width="280" height="26" as="geometry" />
        </mxCell>
        <mxCell id="bGd2WQ48AGfHmZ8i3NYs-19" value="&lt;span style=&quot;color: rgb(0 , 0 , 0) ; font-family: &amp;#34;helvetica&amp;#34; ; font-size: 12px ; font-style: normal ; font-weight: 400 ; letter-spacing: normal ; text-align: left ; text-indent: 0px ; text-transform: none ; word-spacing: 0px ; background-color: rgb(248 , 249 , 250) ; display: inline ; float: none&quot;&gt;&amp;nbsp;platformPanel : JPanel&lt;/span&gt;" style="text;whiteSpace=wrap;html=1;" parent="OpwlPaw0gnE8BgqzogMv-7" vertex="1">
          <mxGeometry y="78" width="280" height="30" as="geometry" />
        </mxCell>
        <mxCell id="j2hkmLixcF60nlP_8ZF7-47" value="liftBedButton : JButton" style="text;strokeColor=none;fillColor=none;align=left;verticalAlign=top;spacingLeft=4;spacingRight=4;overflow=hidden;rotatable=0;points=[[0,0.5],[1,0.5]];portConstraint=eastwest;" parent="OpwlPaw0gnE8BgqzogMv-7" vertex="1">
          <mxGeometry y="108" width="280" height="26" as="geometry" />
        </mxCell>
        <mxCell id="j2hkmLixcF60nlP_8ZF7-48" value="lowerBedButton : JButton" style="text;strokeColor=none;fillColor=none;align=left;verticalAlign=top;spacingLeft=4;spacingRight=4;overflow=hidden;rotatable=0;points=[[0,0.5],[1,0.5]];portConstraint=eastwest;" parent="OpwlPaw0gnE8BgqzogMv-7" vertex="1">
          <mxGeometry y="134" width="280" height="26" as="geometry" />
        </mxCell>
        <mxCell id="OpwlPaw0gnE8BgqzogMv-9" value="" style="line;strokeWidth=1;fillColor=none;align=left;verticalAlign=middle;spacingTop=-1;spacingLeft=3;spacingRight=3;rotatable=0;labelPosition=right;points=[];portConstraint=eastwest;" parent="OpwlPaw0gnE8BgqzogMv-7" vertex="1">
          <mxGeometry y="160" width="280" height="8" as="geometry" />
        </mxCell>
        <mxCell id="nzfRx3K8AlSWQh84RHSz-39" value="&lt;span style=&quot;text-align: center&quot;&gt;+ PlatformController(title : String)&lt;/span&gt;" style="text;whiteSpace=wrap;html=1;" parent="OpwlPaw0gnE8BgqzogMv-7" vertex="1">
          <mxGeometry y="168" width="280" height="30" as="geometry" />
        </mxCell>
        <mxCell id="nzfRx3K8AlSWQh84RHSz-40" value="&lt;font face=&quot;helvetica&quot;&gt;&amp;nbsp;- initComponents(title : String): void&lt;/font&gt;" style="text;whiteSpace=wrap;html=1;" parent="OpwlPaw0gnE8BgqzogMv-7" vertex="1">
          <mxGeometry y="198" width="280" height="30" as="geometry" />
        </mxCell>
        <mxCell id="nzfRx3K8AlSWQh84RHSz-41" value="- liftBed(): void" style="text;strokeColor=none;fillColor=none;align=left;verticalAlign=top;spacingLeft=4;spacingRight=4;overflow=hidden;rotatable=0;points=[[0,0.5],[1,0.5]];portConstraint=eastwest;rounded=1;shadow=0;glass=1;sketch=0;" parent="OpwlPaw0gnE8BgqzogMv-7" vertex="1">
          <mxGeometry y="228" width="280" height="26" as="geometry" />
        </mxCell>
        <mxCell id="nzfRx3K8AlSWQh84RHSz-42" value="- lowerBed(): void" style="text;strokeColor=none;fillColor=none;align=left;verticalAlign=top;spacingLeft=4;spacingRight=4;overflow=hidden;rotatable=0;points=[[0,0.5],[1,0.5]];portConstraint=eastwest;rounded=1;shadow=0;glass=1;sketch=0;" parent="OpwlPaw0gnE8BgqzogMv-7" vertex="1">
          <mxGeometry y="254" width="280" height="26" as="geometry" />
        </mxCell>
        <mxCell id="nzfRx3K8AlSWQh84RHSz-43" value="- addVehicleWithPlatform(p : HasPlatform): void" style="text;strokeColor=none;fillColor=none;align=left;verticalAlign=top;spacingLeft=4;spacingRight=4;overflow=hidden;rotatable=0;points=[[0,0.5],[1,0.5]];portConstraint=eastwest;rounded=1;shadow=0;glass=1;sketch=0;" parent="OpwlPaw0gnE8BgqzogMv-7" vertex="1">
          <mxGeometry y="280" width="280" height="26" as="geometry" />
        </mxCell>
        <mxCell id="YtnWn8rrMA_0s7F1lL3a-1" value="Use" style="endArrow=open;endSize=12;dashed=1;html=1;entryX=0.5;entryY=0;entryDx=0;entryDy=0;exitX=1;exitY=0.5;exitDx=0;exitDy=0;" parent="1" source="5gKmf4tzMt-Gp001ymEf-24" target="OpwlPaw0gnE8BgqzogMv-1" edge="1">
          <mxGeometry width="160" relative="1" as="geometry">
            <mxPoint x="3630" y="-10" as="sourcePoint" />
            <mxPoint x="3790" y="-10" as="targetPoint" />
          </mxGeometry>
        </mxCell>
        <mxCell id="YtnWn8rrMA_0s7F1lL3a-4" value="Use" style="endArrow=open;endSize=12;dashed=1;html=1;entryX=0.5;entryY=0;entryDx=0;entryDy=0;exitX=1;exitY=0.5;exitDx=0;exitDy=0;" parent="1" source="5gKmf4tzMt-Gp001ymEf-24" target="OpwlPaw0gnE8BgqzogMv-7" edge="1">
          <mxGeometry width="160" relative="1" as="geometry">
            <mxPoint x="3620" y="-40" as="sourcePoint" />
            <mxPoint x="4020" y="-10" as="targetPoint" />
          </mxGeometry>
        </mxCell>
        <mxCell id="0YECNIxUbTVjhA4I8XSs-6" value="Factory Pattern" style="rounded=1;whiteSpace=wrap;html=1;arcSize=40;fontColor=#000000;fillColor=#ffffc0;strokeColor=#ff0000;" parent="1" vertex="1">
          <mxGeometry x="2940" y="-10" width="120" height="40" as="geometry" />
        </mxCell>
        <mxCell id="0YECNIxUbTVjhA4I8XSs-7" value="" style="edgeStyle=orthogonalEdgeStyle;html=1;verticalAlign=bottom;endArrow=open;endSize=8;strokeColor=#ff0000;entryX=0.5;entryY=0;entryDx=0;entryDy=0;" parent="1" source="0YECNIxUbTVjhA4I8XSs-6" target="5gKmf4tzMt-Gp001ymEf-14" edge="1">
          <mxGeometry relative="1" as="geometry">
            <mxPoint x="3000" y="179.99999999999955" as="targetPoint" />
          </mxGeometry>
        </mxCell>
        <mxCell id="KnkGTSsJ77P0Gd9VbXLC-64" value="«interface»&lt;br&gt;&lt;b&gt;IWorld&lt;/b&gt;" style="html=1;" parent="1" vertex="1">
          <mxGeometry x="4325" y="679" width="110" height="50" as="geometry" />
        </mxCell>
        <mxCell id="KnkGTSsJ77P0Gd9VbXLC-65" value="" style="endArrow=block;dashed=1;endFill=0;endSize=12;html=1;exitX=0.5;exitY=0;exitDx=0;exitDy=0;entryX=0.5;entryY=1;entryDx=0;entryDy=0;" parent="1" target="KnkGTSsJ77P0Gd9VbXLC-64" edge="1">
          <mxGeometry width="160" relative="1" as="geometry">
            <mxPoint x="4380" y="805" as="sourcePoint" />
            <mxPoint x="4355.000000000001" y="792" as="targetPoint" />
          </mxGeometry>
        </mxCell>
        <mxCell id="KnkGTSsJ77P0Gd9VbXLC-66" value="&lt;&lt;Interface&gt;&gt;&#xa;Observer" style="swimlane;fontStyle=1;align=center;verticalAlign=top;childLayout=stackLayout;horizontal=1;startSize=39;horizontalStack=0;resizeParent=1;resizeParentMax=0;resizeLast=0;collapsible=1;marginBottom=0;fillColor=#fff2cc;strokeColor=#d6b656;" parent="1" vertex="1">
          <mxGeometry x="3590" y="827" width="290" height="65" as="geometry" />
        </mxCell>
        <mxCell id="KnkGTSsJ77P0Gd9VbXLC-67" value="+ updateVehicles(vehicles: ArrayList&lt;Vehicle&gt;):void" style="text;strokeColor=#d6b656;fillColor=#fff2cc;align=left;verticalAlign=top;spacingLeft=4;spacingRight=4;overflow=hidden;rotatable=0;points=[[0,0.5],[1,0.5]];portConstraint=eastwest;" parent="KnkGTSsJ77P0Gd9VbXLC-66" vertex="1">
          <mxGeometry y="39" width="290" height="26" as="geometry" />
        </mxCell>
        <mxCell id="KnkGTSsJ77P0Gd9VbXLC-68" value="" style="endArrow=block;dashed=1;endFill=0;endSize=12;html=1;entryX=0.503;entryY=1.038;entryDx=0;entryDy=0;entryPerimeter=0;exitX=0.5;exitY=0;exitDx=0;exitDy=0;" parent="1" target="KnkGTSsJ77P0Gd9VbXLC-67" edge="1">
          <mxGeometry width="160" relative="1" as="geometry">
            <mxPoint x="3735" y="977" as="sourcePoint" />
            <mxPoint x="4090" y="1010" as="targetPoint" />
          </mxGeometry>
        </mxCell>
        <mxCell id="KnkGTSsJ77P0Gd9VbXLC-70" value="Observer Pattern" style="rounded=1;whiteSpace=wrap;html=1;arcSize=40;fontColor=#000000;fillColor=#ffffc0;strokeColor=#ff0000;" parent="1" vertex="1">
          <mxGeometry x="4000" y="729" width="120" height="40" as="geometry" />
        </mxCell>
        <mxCell id="KnkGTSsJ77P0Gd9VbXLC-71" value="" style="edgeStyle=orthogonalEdgeStyle;html=1;verticalAlign=bottom;endArrow=open;endSize=8;strokeColor=#ff0000;" parent="1" source="KnkGTSsJ77P0Gd9VbXLC-70" edge="1">
          <mxGeometry relative="1" as="geometry">
            <mxPoint x="4060" y="839" as="targetPoint" />
          </mxGeometry>
        </mxCell>
        <mxCell id="KnkGTSsJ77P0Gd9VbXLC-81" value="1" style="endArrow=open;html=1;endSize=12;startArrow=diamondThin;startSize=14;startFill=1;edgeStyle=orthogonalEdgeStyle;align=left;verticalAlign=bottom;exitX=1;exitY=0.5;exitDx=0;exitDy=0;" parent="1" source="Z_tI0dn7aJH7XG_BfM5y-16" edge="1">
          <mxGeometry x="-1" y="3" relative="1" as="geometry">
            <mxPoint x="3400" y="997.74" as="sourcePoint" />
            <mxPoint x="3590" y="991" as="targetPoint" />
          </mxGeometry>
        </mxCell>
        <mxCell id="ceb4Mm7qeh7pn1p0DhYd-11" value="Model" style="text;align=center;fontStyle=1;verticalAlign=middle;spacingLeft=3;spacingRight=3;strokeColor=none;rotatable=0;points=[[0,0.5],[1,0.5]];portConstraint=eastwest;fillColor=none;fontSize=40;" parent="1" vertex="1">
          <mxGeometry x="4150" y="650" width="130" height="50" as="geometry" />
        </mxCell>
        <mxCell id="ceb4Mm7qeh7pn1p0DhYd-13" value="" style="endArrow=open;html=1;endSize=12;startArrow=diamondThin;startSize=14;startFill=1;edgeStyle=orthogonalEdgeStyle;align=left;verticalAlign=bottom;fontSize=40;exitX=0;exitY=0.5;exitDx=0;exitDy=0;entryX=1;entryY=0.5;entryDx=0;entryDy=0;" parent="1" source="v8-L0eBNO-Ke6E-iVG0x-5" edge="1">
          <mxGeometry x="-1" y="3" relative="1" as="geometry">
            <mxPoint x="4700" y="865" as="sourcePoint" />
            <mxPoint x="4520" y="844" as="targetPoint" />
            <Array as="points">
              <mxPoint x="4640" y="894" />
              <mxPoint x="4640" y="844" />
            </Array>
          </mxGeometry>
        </mxCell>
        <mxCell id="ceb4Mm7qeh7pn1p0DhYd-16" value="" style="endArrow=block;endFill=1;html=1;edgeStyle=orthogonalEdgeStyle;align=left;verticalAlign=top;fontSize=40;exitX=0;exitY=0.5;exitDx=0;exitDy=0;entryX=1;entryY=0.25;entryDx=0;entryDy=0;" parent="1" target="KnkGTSsJ77P0Gd9VbXLC-66" edge="1">
          <mxGeometry x="-1" relative="1" as="geometry">
            <mxPoint x="4240" y="844" as="sourcePoint" />
            <mxPoint x="4140" y="900" as="targetPoint" />
          </mxGeometry>
        </mxCell>
        <mxCell id="ceb4Mm7qeh7pn1p0DhYd-17" value="1" style="edgeLabel;resizable=0;html=1;align=left;verticalAlign=bottom;" parent="ceb4Mm7qeh7pn1p0DhYd-16" connectable="0" vertex="1">
          <mxGeometry x="-1" relative="1" as="geometry" />
        </mxCell>
        <mxCell id="ceb4Mm7qeh7pn1p0DhYd-18" value="View" style="text;align=center;fontStyle=1;verticalAlign=middle;spacingLeft=3;spacingRight=3;strokeColor=none;rotatable=0;points=[[0,0.5],[1,0.5]];portConstraint=eastwest;fillColor=none;fontSize=40;" parent="1" vertex="1">
          <mxGeometry x="3100" y="620" width="130" height="50" as="geometry" />
        </mxCell>
        <mxCell id="nzfRx3K8AlSWQh84RHSz-1" value="GasController" style="swimlane;fontStyle=1;align=center;verticalAlign=top;childLayout=stackLayout;horizontal=1;startSize=26;horizontalStack=0;resizeParent=1;resizeParentMax=0;resizeLast=0;collapsible=1;marginBottom=0;" parent="1" vertex="1">
          <mxGeometry x="4080" y="120" width="240" height="418" as="geometry" />
        </mxCell>
        <mxCell id="nzfRx3K8AlSWQh84RHSz-2" value="" style="line;strokeWidth=1;fillColor=none;align=left;verticalAlign=middle;spacingTop=-1;spacingLeft=3;spacingRight=3;rotatable=0;labelPosition=right;points=[];portConstraint=eastwest;" parent="nzfRx3K8AlSWQh84RHSz-1" vertex="1">
          <mxGeometry y="26" width="240" height="8" as="geometry" />
        </mxCell>
        <mxCell id="nzfRx3K8AlSWQh84RHSz-17" value="vehicles : ArrayList&lt;Vehicle&gt;" style="text;strokeColor=none;fillColor=none;align=left;verticalAlign=top;spacingLeft=4;spacingRight=4;overflow=hidden;rotatable=0;points=[[0,0.5],[1,0.5]];portConstraint=eastwest;labelBackgroundColor=none;" parent="nzfRx3K8AlSWQh84RHSz-1" vertex="1">
          <mxGeometry y="34" width="240" height="26" as="geometry" />
        </mxCell>
        <mxCell id="nzfRx3K8AlSWQh84RHSz-18" value="buttonView : ButtonView" style="text;strokeColor=none;fillColor=none;align=left;verticalAlign=top;spacingLeft=4;spacingRight=4;overflow=hidden;rotatable=0;points=[[0,0.5],[1,0.5]];portConstraint=eastwest;" parent="nzfRx3K8AlSWQh84RHSz-1" vertex="1">
          <mxGeometry y="60" width="240" height="26" as="geometry" />
        </mxCell>
        <mxCell id="nzfRx3K8AlSWQh84RHSz-19" value="gasSpinnerPanel : JPanel" style="text;strokeColor=none;fillColor=none;align=left;verticalAlign=top;spacingLeft=4;spacingRight=4;overflow=hidden;rotatable=0;points=[[0,0.5],[1,0.5]];portConstraint=eastwest;" parent="nzfRx3K8AlSWQh84RHSz-1" vertex="1">
          <mxGeometry y="86" width="240" height="26" as="geometry" />
        </mxCell>
        <mxCell id="nzfRx3K8AlSWQh84RHSz-9" value="gasPanel : JPanel" style="text;strokeColor=none;fillColor=none;align=left;verticalAlign=top;spacingLeft=4;spacingRight=4;overflow=hidden;rotatable=0;points=[[0,0.5],[1,0.5]];portConstraint=eastwest;" parent="nzfRx3K8AlSWQh84RHSz-1" vertex="1">
          <mxGeometry y="112" width="240" height="26" as="geometry" />
        </mxCell>
        <mxCell id="nzfRx3K8AlSWQh84RHSz-8" value="gasSpinner : JSpinner " style="text;strokeColor=none;fillColor=none;align=left;verticalAlign=top;spacingLeft=4;spacingRight=4;overflow=hidden;rotatable=0;points=[[0,0.5],[1,0.5]];portConstraint=eastwest;" parent="nzfRx3K8AlSWQh84RHSz-1" vertex="1">
          <mxGeometry y="138" width="240" height="26" as="geometry" />
        </mxCell>
        <mxCell id="nzfRx3K8AlSWQh84RHSz-10" value="gasAmount : int" style="text;strokeColor=none;fillColor=none;align=left;verticalAlign=top;spacingLeft=4;spacingRight=4;overflow=hidden;rotatable=0;points=[[0,0.5],[1,0.5]];portConstraint=eastwest;" parent="nzfRx3K8AlSWQh84RHSz-1" vertex="1">
          <mxGeometry y="164" width="240" height="26" as="geometry" />
        </mxCell>
        <mxCell id="nzfRx3K8AlSWQh84RHSz-7" value="gasLabel : JLabel " style="text;strokeColor=none;fillColor=none;align=left;verticalAlign=top;spacingLeft=4;spacingRight=4;overflow=hidden;rotatable=0;points=[[0,0.5],[1,0.5]];portConstraint=eastwest;" parent="nzfRx3K8AlSWQh84RHSz-1" vertex="1">
          <mxGeometry y="190" width="240" height="26" as="geometry" />
        </mxCell>
        <mxCell id="nzfRx3K8AlSWQh84RHSz-3" value="gasButton : JButton" style="text;align=left;verticalAlign=top;spacingLeft=4;spacingRight=4;overflow=hidden;rotatable=0;points=[[0,0.5],[1,0.5]];portConstraint=eastwest;labelBackgroundColor=none;" parent="nzfRx3K8AlSWQh84RHSz-1" vertex="1">
          <mxGeometry y="216" width="240" height="26" as="geometry" />
        </mxCell>
        <mxCell id="nzfRx3K8AlSWQh84RHSz-4" value="brakeButton : JButton" style="text;align=left;verticalAlign=top;spacingLeft=4;spacingRight=4;overflow=hidden;rotatable=0;points=[[0,0.5],[1,0.5]];portConstraint=eastwest;labelBackgroundColor=none;" parent="nzfRx3K8AlSWQh84RHSz-1" vertex="1">
          <mxGeometry y="242" width="240" height="26" as="geometry" />
        </mxCell>
        <mxCell id="nzfRx3K8AlSWQh84RHSz-11" value="&lt;span style=&quot;color: rgb(0 , 0 , 0) ; font-family: &amp;#34;helvetica&amp;#34; ; font-size: 12px ; font-style: normal ; font-weight: 400 ; letter-spacing: normal ; text-align: left ; text-indent: 0px ; text-transform: none ; word-spacing: 0px ; background-color: rgb(248 , 249 , 250) ; display: inline ; float: none&quot;&gt;&amp;nbsp;world : World&lt;/span&gt;" style="text;whiteSpace=wrap;html=1;" parent="nzfRx3K8AlSWQh84RHSz-1" vertex="1">
          <mxGeometry y="268" width="240" height="30" as="geometry" />
        </mxCell>
        <mxCell id="nzfRx3K8AlSWQh84RHSz-12" value="" style="line;strokeWidth=1;fillColor=none;align=left;verticalAlign=middle;spacingTop=-1;spacingLeft=3;spacingRight=3;rotatable=0;labelPosition=right;points=[];portConstraint=eastwest;" parent="nzfRx3K8AlSWQh84RHSz-1" vertex="1">
          <mxGeometry y="298" width="240" height="8" as="geometry" />
        </mxCell>
        <mxCell id="nzfRx3K8AlSWQh84RHSz-13" value="&lt;span style=&quot;text-align: center&quot;&gt;+ GasController(title : String, world : World)&lt;/span&gt;" style="text;whiteSpace=wrap;html=1;" parent="nzfRx3K8AlSWQh84RHSz-1" vertex="1">
          <mxGeometry y="306" width="240" height="30" as="geometry" />
        </mxCell>
        <mxCell id="nzfRx3K8AlSWQh84RHSz-14" value="&lt;font face=&quot;helvetica&quot;&gt;- initComponents(title : String): void&lt;/font&gt;" style="text;whiteSpace=wrap;html=1;" parent="nzfRx3K8AlSWQh84RHSz-1" vertex="1">
          <mxGeometry y="336" width="240" height="30" as="geometry" />
        </mxCell>
        <mxCell id="nzfRx3K8AlSWQh84RHSz-15" value="gas (amount : int) : void" style="text;strokeColor=none;fillColor=none;align=left;verticalAlign=top;spacingLeft=4;spacingRight=4;overflow=hidden;rotatable=0;points=[[0,0.5],[1,0.5]];portConstraint=eastwest;rounded=1;shadow=0;glass=1;sketch=0;" parent="nzfRx3K8AlSWQh84RHSz-1" vertex="1">
          <mxGeometry y="366" width="240" height="26" as="geometry" />
        </mxCell>
        <mxCell id="nzfRx3K8AlSWQh84RHSz-16" value="brake (amount : int) : void" style="text;strokeColor=none;fillColor=none;align=left;verticalAlign=top;spacingLeft=4;spacingRight=4;overflow=hidden;rotatable=0;points=[[0,0.5],[1,0.5]];portConstraint=eastwest;rounded=1;shadow=0;glass=1;sketch=0;" parent="nzfRx3K8AlSWQh84RHSz-1" vertex="1">
          <mxGeometry y="392" width="240" height="26" as="geometry" />
        </mxCell>
        <mxCell id="nzfRx3K8AlSWQh84RHSz-44" value="ButtonView" style="swimlane;fontStyle=1;align=center;verticalAlign=top;childLayout=stackLayout;horizontal=1;startSize=26;horizontalStack=0;resizeParent=1;resizeParentMax=0;resizeLast=0;collapsible=1;marginBottom=0;labelBackgroundColor=none;fillColor=none;fontColor=#000000;" parent="1" vertex="1">
          <mxGeometry x="4150" y="-30" width="160" height="52" as="geometry" />
        </mxCell>
        <mxCell id="nzfRx3K8AlSWQh84RHSz-45" value="+ ButtonView(title : String)" style="text;strokeColor=none;fillColor=none;align=left;verticalAlign=top;spacingLeft=4;spacingRight=4;overflow=hidden;rotatable=0;points=[[0,0.5],[1,0.5]];portConstraint=eastwest;" parent="nzfRx3K8AlSWQh84RHSz-44" vertex="1">
          <mxGeometry y="26" width="160" height="26" as="geometry" />
        </mxCell>
        <mxCell id="nzfRx3K8AlSWQh84RHSz-48" value="&lt;b&gt;JFrame&lt;/b&gt;" style="html=1;labelBackgroundColor=none;fillColor=none;fontColor=#000000;" parent="1" vertex="1">
          <mxGeometry x="4175" y="-170" width="110" height="50" as="geometry" />
        </mxCell>
        <mxCell id="nzfRx3K8AlSWQh84RHSz-54" value="Extends" style="endArrow=block;endSize=16;endFill=0;html=1;fontColor=#000000;exitX=0.5;exitY=0;exitDx=0;exitDy=0;entryX=0.5;entryY=1;entryDx=0;entryDy=0;" parent="1" source="nzfRx3K8AlSWQh84RHSz-44" target="nzfRx3K8AlSWQh84RHSz-48" edge="1">
          <mxGeometry width="160" relative="1" as="geometry">
            <mxPoint x="3940" y="100" as="sourcePoint" />
            <mxPoint x="4100" y="100" as="targetPoint" />
          </mxGeometry>
        </mxCell>
        <mxCell id="nzfRx3K8AlSWQh84RHSz-59" value="Use" style="endArrow=open;endSize=12;dashed=1;html=1;entryX=0.5;entryY=0;entryDx=0;entryDy=0;exitX=1;exitY=0.5;exitDx=0;exitDy=0;" parent="1" source="5gKmf4tzMt-Gp001ymEf-24" target="nzfRx3K8AlSWQh84RHSz-1" edge="1">
          <mxGeometry width="160" relative="1" as="geometry">
            <mxPoint x="3610" y="-18.999999999999545" as="sourcePoint" />
            <mxPoint x="4580" y="130" as="targetPoint" />
          </mxGeometry>
        </mxCell>
        <mxCell id="v8-L0eBNO-Ke6E-iVG0x-1" value="Clock" style="swimlane;fontStyle=1;childLayout=stackLayout;horizontal=1;startSize=26;fillColor=none;horizontalStack=0;resizeParent=1;resizeParentMax=0;resizeLast=0;collapsible=1;marginBottom=0;" parent="1" vertex="1">
          <mxGeometry x="4730" y="769" width="260" height="250" as="geometry" />
        </mxCell>
        <mxCell id="v8-L0eBNO-Ke6E-iVG0x-2" value="- vehicles : ArrayList&lt;Vehicle&gt;" style="text;strokeColor=none;fillColor=none;align=left;verticalAlign=top;spacingLeft=4;spacingRight=4;overflow=hidden;rotatable=0;points=[[0,0.5],[1,0.5]];portConstraint=eastwest;" parent="v8-L0eBNO-Ke6E-iVG0x-1" vertex="1">
          <mxGeometry y="26" width="260" height="26" as="geometry" />
        </mxCell>
        <mxCell id="v8-L0eBNO-Ke6E-iVG0x-3" value="&lt;span style=&quot;font-family: &amp;#34;helvetica&amp;#34; ; font-size: 12px ; font-style: normal ; font-weight: 400 ; letter-spacing: normal ; text-align: left ; text-indent: 0px ; text-transform: none ; word-spacing: 0px ; display: inline ; float: none&quot;&gt;&amp;lt;&amp;lt;final&amp;gt;&amp;gt; - delay : int&lt;/span&gt;" style="text;whiteSpace=wrap;html=1;" parent="v8-L0eBNO-Ke6E-iVG0x-1" vertex="1">
          <mxGeometry y="52" width="260" height="30" as="geometry" />
        </mxCell>
        <mxCell id="v8-L0eBNO-Ke6E-iVG0x-4" value="&lt;span style=&quot;color: rgb(0, 0, 0); font-family: helvetica; font-size: 12px; font-style: normal; font-weight: 400; letter-spacing: normal; text-align: left; text-indent: 0px; text-transform: none; word-spacing: 0px; display: inline; float: none;&quot;&gt;- timer : Timer&lt;/span&gt;" style="text;whiteSpace=wrap;html=1;labelBackgroundColor=none;" parent="v8-L0eBNO-Ke6E-iVG0x-1" vertex="1">
          <mxGeometry y="82" width="260" height="30" as="geometry" />
        </mxCell>
        <mxCell id="v8-L0eBNO-Ke6E-iVG0x-5" value="- world : World" style="text;strokeColor=none;fillColor=none;align=left;verticalAlign=top;spacingLeft=4;spacingRight=4;overflow=hidden;rotatable=0;points=[[0,0.5],[1,0.5]];portConstraint=eastwest;labelBackgroundColor=none;" parent="v8-L0eBNO-Ke6E-iVG0x-1" vertex="1">
          <mxGeometry y="112" width="260" height="26" as="geometry" />
        </mxCell>
        <mxCell id="v8-L0eBNO-Ke6E-iVG0x-6" value="" style="line;strokeWidth=1;fillColor=none;align=left;verticalAlign=middle;spacingTop=-1;spacingLeft=3;spacingRight=3;rotatable=0;labelPosition=right;points=[];portConstraint=eastwest;" parent="v8-L0eBNO-Ke6E-iVG0x-1" vertex="1">
          <mxGeometry y="138" width="260" height="8" as="geometry" />
        </mxCell>
        <mxCell id="v8-L0eBNO-Ke6E-iVG0x-7" value="+ Clock(world : World)" style="text;strokeColor=none;fillColor=none;align=left;verticalAlign=top;spacingLeft=4;spacingRight=4;overflow=hidden;rotatable=0;points=[[0,0.5],[1,0.5]];portConstraint=eastwest;" parent="v8-L0eBNO-Ke6E-iVG0x-1" vertex="1">
          <mxGeometry y="146" width="260" height="26" as="geometry" />
        </mxCell>
        <mxCell id="v8-L0eBNO-Ke6E-iVG0x-8" value="+ start() : void" style="text;strokeColor=none;fillColor=none;align=left;verticalAlign=top;spacingLeft=4;spacingRight=4;overflow=hidden;rotatable=0;points=[[0,0.5],[1,0.5]];portConstraint=eastwest;" parent="v8-L0eBNO-Ke6E-iVG0x-1" vertex="1">
          <mxGeometry y="172" width="260" height="26" as="geometry" />
        </mxCell>
        <mxCell id="v8-L0eBNO-Ke6E-iVG0x-9" value="TimerListener" style="swimlane;fontStyle=1;childLayout=stackLayout;horizontal=1;startSize=26;fillColor=none;horizontalStack=0;resizeParent=1;resizeParentMax=0;resizeLast=0;collapsible=1;marginBottom=0;" parent="v8-L0eBNO-Ke6E-iVG0x-1" vertex="1">
          <mxGeometry y="198" width="260" height="52" as="geometry" />
        </mxCell>
        <mxCell id="v8-L0eBNO-Ke6E-iVG0x-10" value="+ actionPerformed(e : ActionEvent) : void" style="text;strokeColor=none;fillColor=none;align=left;verticalAlign=top;spacingLeft=4;spacingRight=4;overflow=hidden;rotatable=0;points=[[0,0.5],[1,0.5]];portConstraint=eastwest;" parent="v8-L0eBNO-Ke6E-iVG0x-9" vertex="1">
          <mxGeometry y="26" width="260" height="26" as="geometry" />
        </mxCell>
        <mxCell id="v8-L0eBNO-Ke6E-iVG0x-11" value="public void actionPerformed(ActionEvent e) { world.updateWorld(); }" style="shape=note2;boundedLbl=1;whiteSpace=wrap;html=1;size=25;verticalAlign=top;align=center;" parent="1" vertex="1">
          <mxGeometry x="4740" y="1119" width="260" height="70" as="geometry" />
        </mxCell>
        <mxCell id="v8-L0eBNO-Ke6E-iVG0x-12" value="HasTurboModel" style="swimlane;fontStyle=1;align=center;verticalAlign=top;childLayout=stackLayout;horizontal=1;startSize=26;horizontalStack=0;resizeParent=1;resizeParentMax=0;resizeLast=0;collapsible=1;marginBottom=0;" parent="1" vertex="1">
          <mxGeometry x="5080" y="760" width="210" height="112" as="geometry" />
        </mxCell>
        <mxCell id="v8-L0eBNO-Ke6E-iVG0x-13" value="- hasTurboList: ArrayList&lt;HasTurbo&gt;" style="text;strokeColor=none;fillColor=none;align=left;verticalAlign=top;spacingLeft=4;spacingRight=4;overflow=hidden;rotatable=0;points=[[0,0.5],[1,0.5]];portConstraint=eastwest;" parent="v8-L0eBNO-Ke6E-iVG0x-12" vertex="1">
          <mxGeometry y="26" width="210" height="26" as="geometry" />
        </mxCell>
        <mxCell id="v8-L0eBNO-Ke6E-iVG0x-14" value="" style="line;strokeWidth=1;fillColor=none;align=left;verticalAlign=middle;spacingTop=-1;spacingLeft=3;spacingRight=3;rotatable=0;labelPosition=right;points=[];portConstraint=eastwest;" parent="v8-L0eBNO-Ke6E-iVG0x-12" vertex="1">
          <mxGeometry y="52" width="210" height="8" as="geometry" />
        </mxCell>
        <mxCell id="v8-L0eBNO-Ke6E-iVG0x-15" value="+ turboOn(): void" style="text;strokeColor=none;fillColor=none;align=left;verticalAlign=top;spacingLeft=4;spacingRight=4;overflow=hidden;rotatable=0;points=[[0,0.5],[1,0.5]];portConstraint=eastwest;rounded=1;shadow=0;glass=1;sketch=0;" parent="v8-L0eBNO-Ke6E-iVG0x-12" vertex="1">
          <mxGeometry y="60" width="210" height="26" as="geometry" />
        </mxCell>
        <mxCell id="v8-L0eBNO-Ke6E-iVG0x-16" value="+ turboOff(): void" style="text;strokeColor=none;fillColor=none;align=left;verticalAlign=top;spacingLeft=4;spacingRight=4;overflow=hidden;rotatable=0;points=[[0,0.5],[1,0.5]];portConstraint=eastwest;rounded=1;shadow=0;glass=1;sketch=0;" parent="v8-L0eBNO-Ke6E-iVG0x-12" vertex="1">
          <mxGeometry y="86" width="210" height="26" as="geometry" />
        </mxCell>
        <mxCell id="v8-L0eBNO-Ke6E-iVG0x-17" value="World" style="swimlane;fontStyle=1;align=center;verticalAlign=top;childLayout=stackLayout;horizontal=1;startSize=26;horizontalStack=0;resizeParent=1;resizeParentMax=0;resizeLast=0;collapsible=1;marginBottom=0;" parent="1" vertex="1">
          <mxGeometry x="4240" y="799" width="280" height="502" as="geometry" />
        </mxCell>
        <mxCell id="v8-L0eBNO-Ke6E-iVG0x-18" value="- vehicles : ArrayList&lt;Vehicle.Vehicle&gt;" style="text;strokeColor=none;fillColor=none;align=left;verticalAlign=top;spacingLeft=4;spacingRight=4;overflow=hidden;rotatable=0;points=[[0,0.5],[1,0.5]];portConstraint=eastwest;labelBackgroundColor=none;" parent="v8-L0eBNO-Ke6E-iVG0x-17" vertex="1">
          <mxGeometry y="26" width="280" height="26" as="geometry" />
        </mxCell>
        <mxCell id="v8-L0eBNO-Ke6E-iVG0x-19" value="- listeners : ArrayList&lt;Observer&gt;" style="text;strokeColor=none;fillColor=none;align=left;verticalAlign=top;spacingLeft=4;spacingRight=4;overflow=hidden;rotatable=0;points=[[0,0.5],[1,0.5]];portConstraint=eastwest;labelBackgroundColor=none;" parent="v8-L0eBNO-Ke6E-iVG0x-17" vertex="1">
          <mxGeometry y="52" width="280" height="26" as="geometry" />
        </mxCell>
        <mxCell id="v8-L0eBNO-Ke6E-iVG0x-20" value="- hasTurboModel : HasTurboModel" style="text;strokeColor=none;fillColor=none;align=left;verticalAlign=top;spacingLeft=4;spacingRight=4;overflow=hidden;rotatable=0;points=[[0,0.5],[1,0.5]];portConstraint=eastwest;labelBackgroundColor=none;" parent="v8-L0eBNO-Ke6E-iVG0x-17" vertex="1">
          <mxGeometry y="78" width="280" height="26" as="geometry" />
        </mxCell>
        <mxCell id="v8-L0eBNO-Ke6E-iVG0x-21" value="- gasModel : GasModel" style="text;strokeColor=none;fillColor=none;align=left;verticalAlign=top;spacingLeft=4;spacingRight=4;overflow=hidden;rotatable=0;points=[[0,0.5],[1,0.5]];portConstraint=eastwest;labelBackgroundColor=none;" parent="v8-L0eBNO-Ke6E-iVG0x-17" vertex="1">
          <mxGeometry y="104" width="280" height="26" as="geometry" />
        </mxCell>
        <mxCell id="v8-L0eBNO-Ke6E-iVG0x-22" value="" style="line;strokeWidth=1;fillColor=none;align=left;verticalAlign=middle;spacingTop=-1;spacingLeft=3;spacingRight=3;rotatable=0;labelPosition=right;points=[];portConstraint=eastwest;" parent="v8-L0eBNO-Ke6E-iVG0x-17" vertex="1">
          <mxGeometry y="130" width="280" height="8" as="geometry" />
        </mxCell>
        <mxCell id="v8-L0eBNO-Ke6E-iVG0x-23" value="+World() {}" style="text;strokeColor=none;fillColor=none;align=left;verticalAlign=top;spacingLeft=4;spacingRight=4;overflow=hidden;rotatable=0;points=[[0,0.5],[1,0.5]];portConstraint=eastwest;" parent="v8-L0eBNO-Ke6E-iVG0x-17" vertex="1">
          <mxGeometry y="138" width="280" height="26" as="geometry" />
        </mxCell>
        <mxCell id="v8-L0eBNO-Ke6E-iVG0x-24" value="+ gas(amount : int) : void" style="text;strokeColor=none;fillColor=none;align=left;verticalAlign=top;spacingLeft=4;spacingRight=4;overflow=hidden;rotatable=0;points=[[0,0.5],[1,0.5]];portConstraint=eastwest;" parent="v8-L0eBNO-Ke6E-iVG0x-17" vertex="1">
          <mxGeometry y="164" width="280" height="26" as="geometry" />
        </mxCell>
        <mxCell id="v8-L0eBNO-Ke6E-iVG0x-25" value="+ turboOn(): void" style="text;strokeColor=none;fillColor=none;align=left;verticalAlign=top;spacingLeft=4;spacingRight=4;overflow=hidden;rotatable=0;points=[[0,0.5],[1,0.5]];portConstraint=eastwest;rounded=1;shadow=0;glass=1;sketch=0;" parent="v8-L0eBNO-Ke6E-iVG0x-17" vertex="1">
          <mxGeometry y="190" width="280" height="26" as="geometry" />
        </mxCell>
        <mxCell id="v8-L0eBNO-Ke6E-iVG0x-26" value="+ turboOff(): void" style="text;strokeColor=none;fillColor=none;align=left;verticalAlign=top;spacingLeft=4;spacingRight=4;overflow=hidden;rotatable=0;points=[[0,0.5],[1,0.5]];portConstraint=eastwest;rounded=1;shadow=0;glass=1;sketch=0;" parent="v8-L0eBNO-Ke6E-iVG0x-17" vertex="1">
          <mxGeometry y="216" width="280" height="26" as="geometry" />
        </mxCell>
        <mxCell id="v8-L0eBNO-Ke6E-iVG0x-27" value="+ startAllVehicles() : void" style="text;strokeColor=none;fillColor=none;align=left;verticalAlign=top;spacingLeft=4;spacingRight=4;overflow=hidden;rotatable=0;points=[[0,0.5],[1,0.5]];portConstraint=eastwest;rounded=1;shadow=0;glass=1;sketch=0;" parent="v8-L0eBNO-Ke6E-iVG0x-17" vertex="1">
          <mxGeometry y="242" width="280" height="26" as="geometry" />
        </mxCell>
        <mxCell id="v8-L0eBNO-Ke6E-iVG0x-28" value="+ notifyView(): void" style="text;strokeColor=#d6b656;fillColor=#fff2cc;align=left;verticalAlign=top;spacingLeft=4;spacingRight=4;overflow=hidden;rotatable=0;points=[[0,0.5],[1,0.5]];portConstraint=eastwest;" parent="v8-L0eBNO-Ke6E-iVG0x-17" vertex="1">
          <mxGeometry y="268" width="280" height="26" as="geometry" />
        </mxCell>
        <mxCell id="v8-L0eBNO-Ke6E-iVG0x-29" value="+ addListener(o:Observer) :void" style="text;strokeColor=#d6b656;fillColor=#fff2cc;align=left;verticalAlign=top;spacingLeft=4;spacingRight=4;overflow=hidden;rotatable=0;points=[[0,0.5],[1,0.5]];portConstraint=eastwest;" parent="v8-L0eBNO-Ke6E-iVG0x-17" vertex="1">
          <mxGeometry y="294" width="280" height="26" as="geometry" />
        </mxCell>
        <mxCell id="v8-L0eBNO-Ke6E-iVG0x-30" value="+ removeListener(o:Observer): void" style="text;strokeColor=#d6b656;fillColor=#fff2cc;align=left;verticalAlign=top;spacingLeft=4;spacingRight=4;overflow=hidden;rotatable=0;points=[[0,0.5],[1,0.5]];portConstraint=eastwest;" parent="v8-L0eBNO-Ke6E-iVG0x-17" vertex="1">
          <mxGeometry y="320" width="280" height="26" as="geometry" />
        </mxCell>
        <mxCell id="v8-L0eBNO-Ke6E-iVG0x-31" value="+addVehicle(vehicle : Vehicle): void" style="text;strokeColor=none;fillColor=none;align=left;verticalAlign=top;spacingLeft=4;spacingRight=4;overflow=hidden;rotatable=0;points=[[0,0.5],[1,0.5]];portConstraint=eastwest;" parent="v8-L0eBNO-Ke6E-iVG0x-17" vertex="1">
          <mxGeometry y="346" width="280" height="26" as="geometry" />
        </mxCell>
        <mxCell id="v8-L0eBNO-Ke6E-iVG0x-32" value="+updateWorld():void" style="text;strokeColor=none;fillColor=none;align=left;verticalAlign=top;spacingLeft=4;spacingRight=4;overflow=hidden;rotatable=0;points=[[0,0.5],[1,0.5]];portConstraint=eastwest;" parent="v8-L0eBNO-Ke6E-iVG0x-17" vertex="1">
          <mxGeometry y="372" width="280" height="26" as="geometry" />
        </mxCell>
        <mxCell id="v8-L0eBNO-Ke6E-iVG0x-33" value="-isOutOfBoundsLeft(Vehicle.Vehicle): boolean" style="text;strokeColor=none;fillColor=none;align=left;verticalAlign=top;spacingLeft=4;spacingRight=4;overflow=hidden;rotatable=0;points=[[0,0.5],[1,0.5]];portConstraint=eastwest;" parent="v8-L0eBNO-Ke6E-iVG0x-17" vertex="1">
          <mxGeometry y="398" width="280" height="26" as="geometry" />
        </mxCell>
        <mxCell id="v8-L0eBNO-Ke6E-iVG0x-34" value="-isOutOfBoundsRight(Vehicle.Vehicle): boolean" style="text;strokeColor=none;fillColor=none;align=left;verticalAlign=top;spacingLeft=4;spacingRight=4;overflow=hidden;rotatable=0;points=[[0,0.5],[1,0.5]];portConstraint=eastwest;" parent="v8-L0eBNO-Ke6E-iVG0x-17" vertex="1">
          <mxGeometry y="424" width="280" height="26" as="geometry" />
        </mxCell>
        <mxCell id="v8-L0eBNO-Ke6E-iVG0x-35" value="-isOutOfBoundsUp(Vehicle.Vehicle): boolean" style="text;strokeColor=none;fillColor=none;align=left;verticalAlign=top;spacingLeft=4;spacingRight=4;overflow=hidden;rotatable=0;points=[[0,0.5],[1,0.5]];portConstraint=eastwest;" parent="v8-L0eBNO-Ke6E-iVG0x-17" vertex="1">
          <mxGeometry y="450" width="280" height="26" as="geometry" />
        </mxCell>
        <mxCell id="v8-L0eBNO-Ke6E-iVG0x-36" value="-isOutOfBoundsDown(Vehicle.Vehicle): boolean" style="text;strokeColor=none;fillColor=none;align=left;verticalAlign=top;spacingLeft=4;spacingRight=4;overflow=hidden;rotatable=0;points=[[0,0.5],[1,0.5]];portConstraint=eastwest;" parent="v8-L0eBNO-Ke6E-iVG0x-17" vertex="1">
          <mxGeometry y="476" width="280" height="26" as="geometry" />
        </mxCell>
        <mxCell id="v8-L0eBNO-Ke6E-iVG0x-37" value="DrawPanel" style="swimlane;fontStyle=1;align=center;verticalAlign=top;childLayout=stackLayout;horizontal=1;startSize=26;horizontalStack=0;resizeParent=1;resizeParentMax=0;resizeLast=0;collapsible=1;marginBottom=0;" parent="1" vertex="1">
          <mxGeometry x="3590" y="977" width="290" height="298" as="geometry" />
        </mxCell>
        <mxCell id="v8-L0eBNO-Ke6E-iVG0x-38" value="- x : int" style="text;strokeColor=none;fillColor=none;align=left;verticalAlign=top;spacingLeft=4;spacingRight=4;overflow=hidden;rotatable=0;points=[[0,0.5],[1,0.5]];portConstraint=eastwest;" parent="v8-L0eBNO-Ke6E-iVG0x-37" vertex="1">
          <mxGeometry y="26" width="290" height="26" as="geometry" />
        </mxCell>
        <mxCell id="v8-L0eBNO-Ke6E-iVG0x-39" value="- y : int" style="text;strokeColor=none;fillColor=none;align=left;verticalAlign=top;spacingLeft=4;spacingRight=4;overflow=hidden;rotatable=0;points=[[0,0.5],[1,0.5]];portConstraint=eastwest;" parent="v8-L0eBNO-Ke6E-iVG0x-37" vertex="1">
          <mxGeometry y="52" width="290" height="26" as="geometry" />
        </mxCell>
        <mxCell id="v8-L0eBNO-Ke6E-iVG0x-40" value="- volvoImage : BufferedImage" style="text;strokeColor=none;fillColor=none;align=left;verticalAlign=top;spacingLeft=4;spacingRight=4;overflow=hidden;rotatable=0;points=[[0,0.5],[1,0.5]];portConstraint=eastwest;" parent="v8-L0eBNO-Ke6E-iVG0x-37" vertex="1">
          <mxGeometry y="78" width="290" height="26" as="geometry" />
        </mxCell>
        <mxCell id="v8-L0eBNO-Ke6E-iVG0x-41" value="- saabImage : BufferedImage" style="text;strokeColor=none;fillColor=none;align=left;verticalAlign=top;spacingLeft=4;spacingRight=4;overflow=hidden;rotatable=0;points=[[0,0.5],[1,0.5]];portConstraint=eastwest;" parent="v8-L0eBNO-Ke6E-iVG0x-37" vertex="1">
          <mxGeometry y="104" width="290" height="26" as="geometry" />
        </mxCell>
        <mxCell id="v8-L0eBNO-Ke6E-iVG0x-42" value="- scaniaImage : BufferedImage" style="text;strokeColor=none;fillColor=none;align=left;verticalAlign=top;spacingLeft=4;spacingRight=4;overflow=hidden;rotatable=0;points=[[0,0.5],[1,0.5]];portConstraint=eastwest;" parent="v8-L0eBNO-Ke6E-iVG0x-37" vertex="1">
          <mxGeometry y="130" width="290" height="26" as="geometry" />
        </mxCell>
        <mxCell id="v8-L0eBNO-Ke6E-iVG0x-43" value="" style="line;strokeWidth=1;fillColor=none;align=left;verticalAlign=middle;spacingTop=-1;spacingLeft=3;spacingRight=3;rotatable=0;labelPosition=right;points=[];portConstraint=eastwest;" parent="v8-L0eBNO-Ke6E-iVG0x-37" vertex="1">
          <mxGeometry y="156" width="290" height="8" as="geometry" />
        </mxCell>
        <mxCell id="v8-L0eBNO-Ke6E-iVG0x-44" value="+ DrawPanel( x: int, y : int,)" style="text;strokeColor=none;fillColor=none;align=left;verticalAlign=top;spacingLeft=4;spacingRight=4;overflow=hidden;rotatable=0;points=[[0,0.5],[1,0.5]];portConstraint=eastwest;" parent="v8-L0eBNO-Ke6E-iVG0x-37" vertex="1">
          <mxGeometry y="164" width="290" height="26" as="geometry" />
        </mxCell>
        <mxCell id="v8-L0eBNO-Ke6E-iVG0x-45" value="- initComponents( x: int, y : int) : void" style="text;strokeColor=none;fillColor=none;align=left;verticalAlign=top;spacingLeft=4;spacingRight=4;overflow=hidden;rotatable=0;points=[[0,0.5],[1,0.5]];portConstraint=eastwest;" parent="v8-L0eBNO-Ke6E-iVG0x-37" vertex="1">
          <mxGeometry y="190" width="290" height="26" as="geometry" />
        </mxCell>
        <mxCell id="v8-L0eBNO-Ke6E-iVG0x-46" value="&lt;span style=&quot;color: rgb(0 , 0 , 0) ; font-family: &amp;#34;helvetica&amp;#34; ; font-size: 12px ; font-style: normal ; font-weight: 400 ; letter-spacing: normal ; text-align: left ; text-indent: 0px ; text-transform: none ; word-spacing: 0px ; background-color: rgb(248 , 249 , 250) ; display: inline ; float: none&quot;&gt;+ updateView(vehicles: ArrayList&amp;lt;Vehicle&amp;gt;):void&lt;/span&gt;" style="text;whiteSpace=wrap;html=1;fillColor=#fff2cc;strokeColor=#d6b656;" parent="v8-L0eBNO-Ke6E-iVG0x-37" vertex="1">
          <mxGeometry y="216" width="290" height="30" as="geometry" />
        </mxCell>
        <mxCell id="v8-L0eBNO-Ke6E-iVG0x-47" value="+ getVehicleImage(v : Vehicle) : BufferedImage" style="text;strokeColor=none;fillColor=none;align=left;verticalAlign=top;spacingLeft=4;spacingRight=4;overflow=hidden;rotatable=0;points=[[0,0.5],[1,0.5]];portConstraint=eastwest;" parent="v8-L0eBNO-Ke6E-iVG0x-37" vertex="1">
          <mxGeometry y="246" width="290" height="26" as="geometry" />
        </mxCell>
        <mxCell id="v8-L0eBNO-Ke6E-iVG0x-48" value="# paintComponent(g : Graphics) : void" style="text;align=left;verticalAlign=top;spacingLeft=4;spacingRight=4;overflow=hidden;rotatable=0;points=[[0,0.5],[1,0.5]];portConstraint=eastwest;" parent="v8-L0eBNO-Ke6E-iVG0x-37" vertex="1">
          <mxGeometry y="272" width="290" height="26" as="geometry" />
        </mxCell>
        <mxCell id="1AxOyfFs8DcHSEyLTq5j-1" value="" style="line;strokeWidth=1;direction=south;html=1;dashed=1;dashPattern=20 20;labelBackgroundColor=none;fillColor=none;fontColor=#000000;" vertex="1" parent="1">
          <mxGeometry x="4855" y="1019" width="10" height="100" as="geometry" />
        </mxCell>
        <mxCell id="1AxOyfFs8DcHSEyLTq5j-4" value="GasModel" style="swimlane;fontStyle=1;align=center;verticalAlign=top;childLayout=stackLayout;horizontal=1;startSize=26;horizontalStack=0;resizeParent=1;resizeParentMax=0;resizeLast=0;collapsible=1;marginBottom=0;" vertex="1" parent="1">
          <mxGeometry x="5360" y="760" width="210" height="86" as="geometry" />
        </mxCell>
        <mxCell id="1AxOyfFs8DcHSEyLTq5j-6" value="" style="line;strokeWidth=1;fillColor=none;align=left;verticalAlign=middle;spacingTop=-1;spacingLeft=3;spacingRight=3;rotatable=0;labelPosition=right;points=[];portConstraint=eastwest;" vertex="1" parent="1AxOyfFs8DcHSEyLTq5j-4">
          <mxGeometry y="26" width="210" height="8" as="geometry" />
        </mxCell>
        <mxCell id="1AxOyfFs8DcHSEyLTq5j-7" value="gas(amount : int, v : Vehicle) : void" style="text;strokeColor=none;fillColor=none;align=left;verticalAlign=top;spacingLeft=4;spacingRight=4;overflow=hidden;rotatable=0;points=[[0,0.5],[1,0.5]];portConstraint=eastwest;rounded=1;shadow=0;glass=1;sketch=0;" vertex="1" parent="1AxOyfFs8DcHSEyLTq5j-4">
          <mxGeometry y="34" width="210" height="26" as="geometry" />
        </mxCell>
        <mxCell id="1AxOyfFs8DcHSEyLTq5j-8" value="brake(amount : int, v : Vehicle) : void" style="text;strokeColor=none;fillColor=none;align=left;verticalAlign=top;spacingLeft=4;spacingRight=4;overflow=hidden;rotatable=0;points=[[0,0.5],[1,0.5]];portConstraint=eastwest;rounded=1;shadow=0;glass=1;sketch=0;" vertex="1" parent="1AxOyfFs8DcHSEyLTq5j-4">
          <mxGeometry y="60" width="210" height="26" as="geometry" />
        </mxCell>
      </root>
    </mxGraphModel>
  </diagram>
</mxfile>
